<?xml version="1.0" encoding="utf-8"?>
<!-- Generator: Adobe Illustrator 21.0.2, SVG Export Plug-In . SVG Version: 6.00 Build 0)  -->
<svg version="1.1" id="Capa_1" xmlns="http://www.w3.org/2000/svg" xmlns:xlink="http://www.w3.org/1999/xlink" x="0px" y="0px"
	 viewBox="0 0 100 17" style="enable-background:new 0 0 100 17;" xml:space="preserve">
<style type="text/css">
	.st0{fill:#FFFFFF;}
</style>
<g>
	<path class="st0" d="M59.4,12.8c0.6-1.7,0.8-3.4,0.7-5.2C60,6,59.6,4.5,58.9,3c-0.5-1.1-1.2-2.1-2-3c-0.2,0.2-0.5,0.5-0.7,0.7
		C56,0.9,55.9,1,55.8,1.1c0,0,0,0.1,0.1,0.1c0.1,0.1,0.1,0.2,0.2,0.2c0.1,0.2,0.3,0.3,0.4,0.5c1,1.4,1.7,2.9,2,4.6
		c0.3,1.8,0.2,3.6-0.3,5.4c-0.3,0.8-0.6,1.6-1,2.3c-0.2,0.4-0.4,0.7-0.7,1c-0.1,0.2-0.3,0.3-0.4,0.5c-0.1,0.1-0.1,0.2-0.2,0.2
		c0,0,0,0,0,0.1c0.4,0.4,0.7,0.7,1.1,1.1C58,15.8,58.8,14.3,59.4,12.8C59.4,12.7,59.4,12.8,59.4,12.8z"/>
	<g>
		<path class="st0" d="M41.9,6.4c1.2,0,1.9,0.6,1.9,2v2.4c0,0.1,0,0.2-0.1,0.2c-0.5,0.2-1.2,0.3-1.8,0.3c-1.3,0-2.1-0.5-2.1-1.5
			c0-0.9,0.7-1.4,1.9-1.4c0.3,0,0.5,0,0.8,0.1V8.3c0-0.5-0.2-0.7-0.7-0.7c-0.4,0-0.8,0.1-1.1,0.2c-0.1,0-0.2,0-0.2-0.1l-0.4-0.7
			c0-0.1,0-0.2,0-0.2C40.5,6.6,41.2,6.4,41.9,6.4z M41.9,10.1c0.2,0,0.4,0,0.6-0.1V9.3c-0.2,0-0.4-0.1-0.6-0.1
			c-0.5,0-0.7,0.2-0.7,0.4C41.2,10,41.5,10.1,41.9,10.1z"/>
		<path class="st0" d="M44.6,11.1c-0.1,0-0.2-0.1-0.2-0.2V7c0-0.1,0-0.1,0.1-0.2c0.5-0.2,1-0.4,1.6-0.4c0.3,0,0.5,0,0.9,0.1
			c0.1,0,0.1,0.1,0.1,0.2v0.8c0,0.1-0.1,0.2-0.2,0.1c-0.2,0-0.4,0-0.5,0c-0.3,0-0.5,0-0.7,0.1V11c0,0.1-0.1,0.2-0.2,0.2L44.6,11.1
			L44.6,11.1z"/>
		<path class="st0" d="M49.3,11.2c-1.3,0-2.1-0.7-2.1-1.9v-1c0-1.2,0.8-1.9,2.1-1.9c0.5,0,1,0.1,1.4,0.4c0.1,0.1,0.1,0.1,0,0.2
			l-0.5,0.7c-0.1,0.1-0.1,0.1-0.2,0.1c-0.2-0.1-0.5-0.2-0.7-0.2c-0.5,0-0.8,0.3-0.8,0.7v1c0,0.5,0.3,0.7,0.8,0.7
			c0.3,0,0.6-0.1,0.8-0.3c0.1-0.1,0.2,0,0.2,0l0.5,0.7c0.1,0.1,0,0.2,0,0.2C50.4,11.1,49.9,11.2,49.3,11.2z"/>
		<path class="st0" d="M53,11.2c-1.3,0-2.1-0.7-2.1-1.9V8.3c0-1.2,0.8-1.9,2.1-1.9c1.3,0,2.1,0.7,2.1,1.9v1.1
			C55.1,10.5,54.3,11.2,53,11.2z M53,10.1c0.5,0,0.7-0.2,0.7-0.7V8.3c0-0.4-0.3-0.7-0.7-0.7s-0.7,0.3-0.7,0.7v1.1
			C52.3,9.8,52.6,10.1,53,10.1z"/>
	</g>
</g>
</svg>
