<?xml version="1.0" encoding="utf-8"?>
<!-- Generator: Adobe Illustrator 21.0.2, SVG Export Plug-In . SVG Version: 6.00 Build 0)  -->
<svg version="1.1" id="Layer_1" xmlns="http://www.w3.org/2000/svg" xmlns:xlink="http://www.w3.org/1999/xlink" x="0px" y="0px"
	 viewBox="0 0 80 112" style="enable-background:new 0 0 80 112;" xml:space="preserve">
<style type="text/css">
	.st0{fill:#FFFFFF;}
</style>
<g>
	<g>
		<path class="st0" d="M13.9,23.2c8,0,12.8,4.2,12.8,13v16c0,0.6-0.3,1-0.9,1.2c-3.4,1-8,1.7-12,1.7C5.4,55,0.1,51.9,0.1,45
			c0-6.1,4.8-9.1,12.7-9.1c1.8,0,3.5,0.2,5,0.3v-0.6c0-3.1-1.1-4.8-4.9-4.8c-2.6,0-5.6,0.7-7.3,1.6c-0.5,0.3-1.1,0.2-1.4-0.3
			l-2.4-4.5c-0.3-0.6-0.3-1,0.1-1.3C4.6,24.6,8.9,23.2,13.9,23.2z M13.8,47.8c1.4,0,2.9-0.2,4-0.5v-5.1c-1.2-0.2-2.7-0.3-4-0.3
			c-3.2,0-4.6,1-4.6,2.9C9.1,46.8,11,47.8,13.8,47.8z"/>
		<path class="st0" d="M31.4,54.3c-0.7,0-1-0.3-1-1V26.8c0-0.5,0.2-0.9,0.8-1.2c3.2-1.6,6.9-2.4,10.7-2.4c1.8,0,3.6,0.2,5.7,0.6
			c0.6,0.1,0.9,0.5,0.9,1.1v5.4c0,0.7-0.4,1-1.1,0.9C46.2,31,44.9,31,43.7,31c-1.8,0-3.3,0.3-4.4,0.8v21.6c0,0.7-0.3,1-1,1
			L31.4,54.3L31.4,54.3z"/>
		<path class="st0" d="M13.8,91.6C5,91.6,0,86.7,0,78.9v-6.6c0-7.7,5.1-12.6,13.8-12.6c3.4,0,6.6,0.9,9.6,2.7
			c0.5,0.3,0.6,0.9,0.3,1.4l-3.1,4.7c-0.3,0.6-0.8,0.6-1.4,0.3c-1.5-0.8-3.2-1.4-4.9-1.4c-3.2,0-5.1,1.8-5.1,4.7v6.6
			c0,3.3,2,4.8,5.1,4.8c2,0,3.8-0.6,5.6-1.7c0.6-0.3,1.1-0.2,1.4,0.3l3.1,4.7c0.3,0.5,0.3,1-0.2,1.4C21.2,90.5,17.8,91.6,13.8,91.6z
			"/>
		<path class="st0" d="M38.7,91.6c-8.6,0-13.9-4.7-13.9-12.4v-7c0-7.8,5.3-12.5,13.9-12.5c8.5,0,13.8,4.7,13.8,12.5v7
			C52.6,86.9,47.3,91.6,38.7,91.6z M38.7,83.7c3.1,0,4.8-1.6,4.8-4.5v-7c0-2.9-1.7-4.6-4.8-4.6S34,69.3,34,72.2v7
			C34,82.1,35.7,83.7,38.7,83.7z"/>
	</g>
	<path class="st0" d="M75.1,84.3c3.4-9.6,5.1-19.9,4.8-30.2c-0.2-9.3-1.9-18.6-5.2-27.3c-3.1-8.4-7.5-16.2-13-23.3
		c-1-1.3-2.1-2.5-3.2-3.8c-1.4,1.4-2.7,2.7-4.1,4.1c-0.8,0.8-1.6,1.6-2.5,2.5c-0.2,0.2-0.3,0.3-0.5,0.5c-0.1,0.1,1.5,1.9,1.7,2.1
		c6,7.4,10.6,15.9,13.4,24.9c3.1,9.9,4.1,20.6,2.8,30.9c-1.2,10-4.4,19.7-9.4,28.4c-2.4,4.1-5.2,8.1-8.4,11.7
		c-0.3,0.3-0.1,0.3,0.1,0.5c0.3,0.3,0.6,0.6,0.9,0.9c0.9,0.9,1.8,1.8,2.8,2.8c1,1,2.1,2.1,3.1,3.1c6.4-7.2,11.5-15.4,15.1-24.3
		C74.2,86.7,74.7,85.5,75.1,84.3C75.3,83.8,75.1,84.4,75.1,84.3z"/>
</g>
</svg>
