<?xml version="1.0" encoding="utf-8"?>
<!-- Generator: Adobe Illustrator 21.0.2, SVG Export Plug-In . SVG Version: 6.00 Build 0)  -->
<svg version="1.1" id="Layer_1" xmlns="http://www.w3.org/2000/svg" xmlns:xlink="http://www.w3.org/1999/xlink" x="0px" y="0px"
	 viewBox="0 0 456 358" style="enable-background:new 0 0 456 358;" xml:space="preserve">
<style type="text/css">
	.st0{fill:#E01F26;}
	.st1{fill:#0D0D0D;}
</style>
<g>
	<g>
		<path class="st0" d="M43.9,74.6c25.6,0,40.6,13.4,40.6,41.5v50.8c0,1.9-0.9,3.2-2.8,3.7c-10.9,3.3-25.6,5.4-38.2,5.4
			c-26.7,0-43.6-10-43.6-31.9c0-19.3,15.2-28.9,40.4-28.9c5.7,0,11.1,0.6,15.8,1.1v-1.9c0-9.8-3.5-15.2-15.6-15.2
			c-8.2,0-17.8,2.2-23.2,5.2c-1.7,0.9-3.5,0.7-4.4-1.1L5.4,88.9c-0.9-1.9-0.9-3.2,0.4-4.1C14.4,79.2,28,74.6,43.9,74.6z M43.6,153
			c4.3,0,9.3-0.7,12.6-1.5v-16.3c-3.7-0.7-8.7-1.1-12.8-1.1c-10.2,0-14.6,3.3-14.6,9.3C28.7,149.9,34.7,153,43.6,153z"/>
		<path class="st0" d="M99.6,173.6c-2.2,0-3.3-1.1-3.3-3.3V86.1c0-1.7,0.7-3,2.4-3.9c10.2-5,22.1-7.6,34.1-7.6
			c5.6,0,11.3,0.7,18,1.9c2,0.4,3,1.5,3,3.5v17.1c0,2.2-1.3,3.3-3.5,3c-3.7-0.6-7.8-0.7-11.5-0.7c-5.6,0-10.6,0.9-14.1,2.4v68.6
			c0,2.2-1.1,3.3-3.2,3.3H99.6V173.6z"/>
		<path class="st0" d="M43.6,292.2c-28,0-43.9-15.6-43.9-40.4v-21c0-24.5,16.1-40.1,43.8-40.1c10.8,0,21,3,30.4,8.7
			c1.7,1.1,2,2.8,0.9,4.6L65,218.8c-1.1,1.9-2.6,2-4.6,1.1c-4.8-2.6-10.2-4.3-15.6-4.3c-10.2,0-16.3,5.6-16.3,15v21
			C28.5,262,35,267,44.6,267c6.3,0,12.2-1.9,17.8-5.4c1.9-1.1,3.5-0.7,4.6,0.9l10,14.8c1.1,1.7,0.9,3.3-0.6,4.4
			C67,288.7,56.4,292.2,43.6,292.2z"/>
		<path class="st0" d="M123,292.2c-27.3,0-44.1-14.8-44.1-39.3v-22.3c0-24.8,16.9-39.9,44.1-39.9c27.1,0,43.9,15,43.9,39.9v22.3
			C167,277.4,150.1,292.2,123,292.2z M123,267.2c9.8,0,15.2-5,15.2-14.3v-22.3c0-9.3-5.4-14.6-15.2-14.6s-15.2,5.4-15.2,14.6v22.3
			C107.8,262.2,113.2,267.2,123,267.2z"/>
	</g>
	<path class="st0" d="M238.9,269c10.9-30.7,16.1-63.4,15.4-96c-0.7-29.6-6.2-59.1-16.4-86.9c-9.8-26.6-23.9-51.7-41.5-74
		C193.1,8,189.7,4,186.2,0c-4.4,4.4-8.7,8.7-13.1,13.1c-2.6,2.6-5.2,5.2-7.8,7.8c-0.6,0.6-1.1,1.1-1.7,1.7c-0.2,0.2,4.9,5.9,5.4,6.6
		c19.1,23.4,33.6,50.5,42.6,79.3c9.8,31.4,12.9,65.5,9,98.3c-3.7,31.8-14,62.7-30,90.5c-7.6,13.2-16.5,25.7-26.6,37.3
		c-0.8,0.9-0.4,0.9,0.4,1.7c1,1,1.9,1.9,2.9,2.9c2.9,2.9,5.8,5.8,8.8,8.8c3.3,3.3,6.6,6.6,9.9,9.9c20.3-22.8,36.7-49.1,48.2-77.4
		C236,276.7,237.5,272.9,238.9,269C239.4,267.6,238.7,269.4,238.9,269z"/>
	<g>
		<path class="st1" d="M269.1,267.7c4.1,0,6.6,2.2,6.6,6.5v10c0,0.2-0.1,0.4-0.3,0.4c-1.6,0.6-3.9,1.1-6.4,1.1
			c-3.7,0-7.2-1.5-7.2-5.5c0-3.5,2.9-5.3,7.2-5.3c1.4,0,2.9,0.2,4,0.4v-1.1c0-2.7-1.1-4.1-4-4.1c-1.9,0-3.6,0.5-4.7,1.2
			c-0.2,0.1-0.4,0.1-0.5-0.1l-1-1.4c-0.1-0.2-0.1-0.3,0-0.5C264.4,268.4,266.5,267.7,269.1,267.7z M269,283.3c1.5,0,3-0.3,4-0.6v-5
			c-1.1-0.2-2.6-0.4-4-0.4c-3,0-4.4,1.1-4.4,3C264.6,282.2,266.4,283.3,269,283.3z"/>
		<path class="st1" d="M280.5,285.3c-0.2,0-0.4-0.1-0.4-0.4v-15.6c0-0.2,0.1-0.4,0.3-0.4c1.7-0.8,3.7-1.2,5.7-1.2
			c1.1,0,2.2,0.1,3.4,0.3c0.2,0,0.3,0.2,0.3,0.4v1.6c0,0.3-0.1,0.4-0.4,0.3c-0.9-0.1-2-0.2-3-0.2c-1.4,0-2.7,0.3-3.6,0.7V285
			c0,0.2-0.1,0.4-0.4,0.4h-1.9V285.3z"/>
		<path class="st1" d="M299.1,267.7c2.1,0,4.5,0.5,6.4,1.2c0.2,0.1,0.3,0.2,0.3,0.4v22c0,0.2-0.1,0.4-0.4,0.4h-2
			c-0.3,0-0.4-0.1-0.4-0.4v-6.6c-1.2,0.6-2.6,1-4.1,1c-4.3,0-7.3-2.6-7.3-7.1v-3.7C291.6,269.9,294.7,267.7,299.1,267.7z
			 M299.1,283.3c1.5,0,2.9-0.5,4-1.2v-11.3c-1-0.4-2.5-0.6-3.9-0.6c-3,0-4.7,1.3-4.7,4.8v3.7C294.4,281.9,296.1,283.3,299.1,283.3z"
			/>
		<path class="st1" d="M323.9,268.1c0.2,0,0.4,0.2,0.4,0.4V284c0,0.2-0.1,0.4-0.3,0.5c-1.9,0.8-4,1.3-6.3,1.3
			c-4.4,0-7.4-2.1-7.4-7.2v-10c0-0.2,0.1-0.4,0.4-0.4h2c0.2,0,0.4,0.2,0.4,0.4v10c0,3.5,1.7,4.8,4.6,4.8c1.4,0,2.8-0.3,3.8-0.6
			v-14.2c0-0.2,0.1-0.4,0.4-0.4L323.9,268.1L323.9,268.1z"/>
		<path class="st1" d="M330.2,264.9c-0.9,0-1.7-0.7-1.7-1.6c0-1,0.7-1.6,1.7-1.6c0.9,0,1.6,0.7,1.6,1.6
			C331.8,264.2,331.1,264.9,330.2,264.9z M329.2,285.3c-0.3,0-0.4-0.1-0.4-0.4v-16.5c0-0.2,0.1-0.4,0.4-0.4h2c0.2,0,0.4,0.2,0.4,0.4
			v16.5c0,0.2-0.1,0.4-0.4,0.4H329.2z"/>
		<path class="st1" d="M342,283.2c0.4,0,1,0,1.6-0.1c0.3,0,0.4,0.1,0.4,0.4v1.8c0,0.2-0.1,0.4-0.3,0.4c-0.6,0-1.4,0.1-1.8,0.1
			c-3.3,0-5.8-1.8-5.8-5.9v-15.6c0-0.3,0.1-0.4,0.4-0.4h1.7c0.2,0,0.3,0.1,0.4,0.4l0.2,4h4.3c0.2,0,0.4,0.1,0.4,0.4v1.7
			c0,0.3-0.1,0.4-0.4,0.4h-4.3v9C338.8,281.9,339.9,283.2,342,283.2z"/>
		<path class="st1" d="M360.2,277.6c0,0.3-0.1,0.4-0.4,0.4h-10.9v1.4c0,2.5,1.9,3.8,4.3,3.8c2.3,0,3.9-0.9,5.1-1.9
			c0.2-0.1,0.4-0.1,0.5,0.1l1,1.3c0.2,0.2,0.1,0.4-0.1,0.5c-1.7,1.4-3.8,2.4-6.6,2.4c-3.6,0-7-2.1-7-6.3v-5.1c0-4.6,3.4-6.7,7.1-6.7
			c3.6,0,7,2.1,7,6.7V277.6z M353.2,270.2c-2.5,0-4.3,1.3-4.3,4.2v1.4h8.6v-1.4C357.5,271.5,355.6,270.2,353.2,270.2z"/>
		<path class="st1" d="M370.6,285.7c-4.4,0-7.2-2.7-7.2-6.4v-5.1c0-3.8,2.7-6.5,7.1-6.5c2,0,3.8,0.6,5.4,1.7
			c0.2,0.2,0.2,0.4,0.1,0.6l-0.9,1.4c-0.1,0.2-0.3,0.2-0.5,0.1c-1.2-0.8-2.6-1.2-4.1-1.2c-2.9,0-4.4,1.6-4.4,4v5.1
			c0,2.4,1.6,4,4.4,4c1.5,0,3-0.5,4.5-1.5c0.2-0.2,0.4-0.1,0.5,0.1l1,1.4c0.1,0.2,0.1,0.4-0.1,0.5
			C374.7,285,372.9,285.7,370.6,285.7z"/>
		<path class="st1" d="M385.6,283.2c0.4,0,1,0,1.6-0.1c0.3,0,0.4,0.1,0.4,0.4v1.8c0,0.2-0.1,0.4-0.3,0.4c-0.6,0-1.4,0.1-1.8,0.1
			c-3.3,0-5.8-1.8-5.8-5.9v-15.6c0-0.3,0.1-0.4,0.4-0.4h1.7c0.2,0,0.3,0.1,0.4,0.4l0.2,4h4.3c0.2,0,0.4,0.1,0.4,0.4v1.7
			c0,0.3-0.1,0.4-0.4,0.4h-4.3v9C382.4,281.9,383.5,283.2,385.6,283.2z"/>
		<path class="st1" d="M403.9,268.1c0.2,0,0.4,0.2,0.4,0.4V284c0,0.2-0.1,0.4-0.3,0.5c-1.9,0.8-4,1.3-6.3,1.3
			c-4.4,0-7.4-2.1-7.4-7.2v-10c0-0.2,0.1-0.4,0.4-0.4h2c0.2,0,0.4,0.2,0.4,0.4v10c0,3.5,1.7,4.8,4.6,4.8c1.4,0,2.8-0.3,3.8-0.6
			v-14.2c0-0.2,0.1-0.4,0.4-0.4L403.9,268.1L403.9,268.1z"/>
		<path class="st1" d="M409.2,285.3c-0.2,0-0.4-0.1-0.4-0.4v-15.6c0-0.2,0.1-0.4,0.3-0.4c1.7-0.8,3.7-1.2,5.7-1.2
			c1.1,0,2.2,0.1,3.4,0.3c0.2,0,0.3,0.2,0.3,0.4v1.6c0,0.3-0.1,0.4-0.4,0.3c-0.9-0.1-2-0.2-3-0.2c-1.4,0-2.7,0.3-3.6,0.7V285
			c0,0.2-0.1,0.4-0.4,0.4h-1.9V285.3z"/>
		<path class="st1" d="M427.1,267.7c4.1,0,6.7,2.2,6.7,6.5v10c0,0.2-0.1,0.4-0.3,0.4c-1.6,0.6-3.9,1.1-6.4,1.1
			c-3.7,0-7.2-1.5-7.2-5.5c0-3.5,2.9-5.3,7.2-5.3c1.4,0,2.9,0.2,4,0.4v-1.1c0-2.7-1.1-4.1-4-4.1c-1.9,0-3.6,0.5-4.7,1.2
			c-0.2,0.1-0.4,0.1-0.5-0.1l-1-1.4c-0.1-0.2-0.1-0.3,0-0.5C422.4,268.4,424.5,267.7,427.1,267.7z M427,283.3c1.5,0,3-0.3,4-0.6v-5
			c-1.1-0.2-2.6-0.4-4-0.4c-3,0-4.4,1.1-4.4,3C422.6,282.2,424.4,283.3,427,283.3z"/>
		<path class="st1" d="M263.4,320.6c-0.2,0-0.4-0.1-0.4-0.4v-15.6c0-0.2,0.1-0.4,0.3-0.4c1.7-0.8,3.7-1.2,5.7-1.2
			c1.1,0,2.2,0.1,3.4,0.3c0.2,0,0.3,0.2,0.3,0.4v1.6c0,0.3-0.1,0.4-0.4,0.3c-0.9-0.1-2-0.2-3-0.2c-1.4,0-2.7,0.3-3.6,0.7v14.2
			c0,0.2-0.1,0.4-0.4,0.4h-1.9V320.6z"/>
		<path class="st1" d="M288.7,312.9c0,0.3-0.1,0.4-0.4,0.4h-10.9v1.4c0,2.5,1.9,3.8,4.3,3.8c2.3,0,3.9-0.9,5.1-1.9
			c0.2-0.1,0.4-0.1,0.5,0.1l1,1.3c0.2,0.2,0.1,0.4-0.1,0.5c-1.7,1.4-3.8,2.4-6.6,2.4c-3.6,0-7.1-2.1-7.1-6.3v-5.1
			c0-4.6,3.4-6.7,7.1-6.7c3.6,0,7,2.1,7,6.7v3.4H288.7z M281.7,305.4c-2.5,0-4.3,1.3-4.3,4.2v1.4h8.6v-1.4
			C286,306.7,284.1,305.4,281.7,305.4z"/>
		<path class="st1" d="M298.4,318.4c0.4,0,1,0,1.6-0.1c0.3,0,0.4,0.1,0.4,0.4v1.8c0,0.2-0.1,0.4-0.3,0.4c-0.6,0-1.4,0.1-1.8,0.1
			c-3.3,0-5.8-1.8-5.8-5.9v-15.6c0-0.3,0.1-0.4,0.4-0.4h1.7c0.2,0,0.3,0.1,0.4,0.4l0.2,4h4.3c0.2,0,0.4,0.1,0.4,0.4v1.7
			c0,0.3-0.1,0.4-0.4,0.4h-4.3v9C295.2,317.1,296.3,318.4,298.4,318.4z"/>
		<path class="st1" d="M309.3,302.9c4.1,0,6.6,2.2,6.6,6.5v10c0,0.2-0.1,0.4-0.3,0.4c-1.6,0.6-3.9,1.1-6.4,1.1
			c-3.7,0-7.2-1.5-7.2-5.5c0-3.5,2.9-5.3,7.2-5.3c1.4,0,2.9,0.2,4,0.4v-1.1c0-2.7-1.1-4.1-4-4.1c-1.9,0-3.6,0.5-4.7,1.2
			c-0.2,0.1-0.4,0.1-0.5-0.1l-1-1.4c-0.1-0.2-0.1-0.3,0-0.5C304.6,303.6,306.7,302.9,309.3,302.9z M309.2,318.5c1.5,0,3-0.3,4-0.6
			v-5c-1.1-0.2-2.6-0.4-4-0.4c-3,0-4.4,1.1-4.4,3C304.8,317.5,306.6,318.5,309.2,318.5z"/>
		<path class="st1" d="M321.7,300.1c-0.9,0-1.7-0.7-1.7-1.6c0-1,0.7-1.6,1.7-1.6c0.9,0,1.6,0.7,1.6,1.6
			C323.4,299.4,322.7,300.1,321.7,300.1z M320.7,320.6c-0.3,0-0.4-0.1-0.4-0.4v-16.5c0-0.2,0.1-0.4,0.4-0.4h2c0.2,0,0.4,0.2,0.4,0.4
			v16.5c0,0.2-0.1,0.4-0.4,0.4H320.7z"/>
		<path class="st1" d="M332.6,320.9c-3.2,0-5-2.1-5-6.1v-17.7c0-0.2,0.1-0.4,0.4-0.4h2c0.2,0,0.4,0.1,0.4,0.4v17.8
			c0,2.6,0.9,3.6,2.6,3.6c0.4,0,1,0,1.5-0.1c0.3,0,0.4,0.1,0.4,0.4v1.7c0,0.2-0.1,0.4-0.3,0.4C333.9,320.9,333.2,320.9,332.6,320.9z
			"/>
		<path class="st1" d="M269.6,356.2c-4.4,0-7.2-2.7-7.2-6.4v-5.1c0-3.8,2.7-6.5,7.1-6.5c2,0,3.8,0.6,5.4,1.7
			c0.2,0.2,0.2,0.4,0.1,0.6l-0.9,1.4c-0.1,0.2-0.3,0.2-0.5,0.1c-1.2-0.8-2.6-1.2-4.1-1.2c-2.9,0-4.4,1.6-4.4,4v5.1
			c0,2.4,1.6,4,4.4,4c1.5,0,3-0.5,4.5-1.5c0.2-0.2,0.4-0.1,0.5,0.1l1,1.4c0.1,0.2,0.1,0.4-0.1,0.5
			C273.8,355.5,271.9,356.2,269.6,356.2z"/>
		<path class="st1" d="M285.3,356.2c-4.5,0-7.4-2.6-7.4-6.5v-4.8c0-3.9,2.8-6.7,7.4-6.7c4.5,0,7.3,2.7,7.3,6.7v4.8
			C292.6,353.5,289.8,356.2,285.3,356.2z M285.3,353.7c3,0,4.6-1.6,4.6-4.1v-4.8c0-2.5-1.6-4.2-4.6-4.2c-3,0-4.6,1.6-4.6,4.2v4.8
			C280.7,352.1,282.3,353.7,285.3,353.7z"/>
		<path class="st1" d="M312.5,338.2c4.1,0,6.9,2.4,6.9,6.8v10.5c0,0.2-0.1,0.4-0.4,0.4h-2c-0.3,0-0.4-0.1-0.4-0.4V345
			c0-2.7-1.4-4.3-4.2-4.3c-1.4,0-2.7,0.4-3.7,1.1c0.4,0.9,0.6,2,0.6,3.2v10.5c0,0.2-0.1,0.4-0.4,0.4h-2c-0.2,0-0.4-0.1-0.4-0.4V345
			c0-2.8-1.3-4.3-4-4.3c-1.4,0-2.4,0.3-3.4,0.6v14.2c0,0.2-0.1,0.4-0.4,0.4h-2c-0.2,0-0.4-0.1-0.4-0.4V340c0-0.2,0.1-0.4,0.3-0.5
			c1.8-0.8,3.7-1.3,5.7-1.3s3.6,0.6,4.8,1.6C309,338.7,310.5,338.2,312.5,338.2z"/>
		<path class="st1" d="M337.4,338.5c0.2,0,0.4,0.2,0.4,0.4v15.5c0,0.2-0.1,0.4-0.3,0.5c-1.9,0.8-4,1.3-6.3,1.3
			c-4.4,0-7.4-2.1-7.4-7.2v-10c0-0.2,0.1-0.4,0.4-0.4h2c0.2,0,0.4,0.2,0.4,0.4v10c0,3.5,1.7,4.8,4.6,4.8c1.4,0,2.8-0.3,3.8-0.6V339
			c0-0.2,0.1-0.4,0.4-0.4L337.4,338.5L337.4,338.5z"/>
		<path class="st1" d="M342.6,355.8c-0.2,0-0.4-0.1-0.4-0.4v-15.5c0-0.2,0.1-0.4,0.3-0.5c1.9-0.8,4.1-1.3,6.4-1.3
			c4.5,0,7.5,2.1,7.5,7.2v10.1c0,0.2-0.1,0.4-0.4,0.4h-2c-0.2,0-0.4-0.1-0.4-0.4v-10c0-3.5-1.8-4.8-4.8-4.8c-1.4,0-2.9,0.3-3.9,0.6
			v14.2c0,0.2-0.1,0.4-0.4,0.4L342.6,355.8L342.6,355.8z"/>
		<path class="st1" d="M362.3,335.3c-0.9,0-1.7-0.7-1.7-1.6c0-1,0.7-1.6,1.7-1.6c0.9,0,1.6,0.7,1.6,1.6
			C364,334.6,363.3,335.3,362.3,335.3z M361.3,355.8c-0.3,0-0.4-0.1-0.4-0.4v-16.5c0-0.2,0.1-0.4,0.4-0.4h2c0.2,0,0.4,0.2,0.4,0.4
			v16.5c0,0.2-0.1,0.4-0.4,0.4H361.3z"/>
		<path class="st1" d="M374.8,356.2c-4.4,0-7.2-2.7-7.2-6.4v-5.1c0-3.8,2.7-6.5,7.1-6.5c2,0,3.8,0.6,5.4,1.7
			c0.2,0.2,0.2,0.4,0.1,0.6l-0.9,1.4c-0.1,0.2-0.3,0.2-0.5,0.1c-1.2-0.8-2.6-1.2-4.1-1.2c-2.9,0-4.4,1.6-4.4,4v5.1
			c0,2.4,1.6,4,4.4,4c1.5,0,3-0.5,4.5-1.5c0.2-0.2,0.4-0.1,0.5,0.1l1,1.4c0.1,0.2,0.1,0.4-0.1,0.5
			C379,355.5,377.2,356.2,374.8,356.2z"/>
		<path class="st1" d="M390,338.2c4.1,0,6.7,2.2,6.7,6.5v10c0,0.2-0.1,0.4-0.3,0.4c-1.6,0.6-3.9,1.1-6.4,1.1c-3.7,0-7.2-1.5-7.2-5.5
			c0-3.5,2.9-5.3,7.2-5.3c1.4,0,2.9,0.2,4,0.4v-1.1c0-2.7-1.1-4.1-4-4.1c-1.9,0-3.6,0.5-4.7,1.2c-0.2,0.1-0.4,0.1-0.5-0.1l-1-1.4
			c-0.1-0.2-0.1-0.3,0-0.5C385.3,338.8,387.4,338.2,390,338.2z M389.9,353.7c1.5,0,3-0.3,4-0.6v-5c-1.1-0.2-2.6-0.4-4-0.4
			c-3,0-4.4,1.1-4.4,3C385.5,352.7,387.3,353.7,389.9,353.7z"/>
		<path class="st1" d="M407.6,356.2c-4.4,0-7.2-2.7-7.2-6.4v-5.1c0-3.8,2.7-6.5,7.1-6.5c2,0,3.8,0.6,5.4,1.7
			c0.2,0.2,0.2,0.4,0.1,0.6l-0.9,1.4c-0.1,0.2-0.3,0.2-0.5,0.1c-1.2-0.8-2.6-1.2-4.1-1.2c-2.9,0-4.4,1.6-4.4,4v5.1
			c0,2.4,1.6,4,4.4,4c1.5,0,3-0.5,4.5-1.5c0.2-0.2,0.4-0.1,0.5,0.1l1,1.4c0.1,0.2,0.1,0.4-0.1,0.5
			C411.8,355.5,409.9,356.2,407.6,356.2z"/>
		<path class="st1" d="M418.1,335.3c-0.9,0-1.7-0.7-1.7-1.6c0-1,0.7-1.6,1.7-1.6c0.9,0,1.6,0.7,1.6,1.6
			C419.8,334.6,419.1,335.3,418.1,335.3z M417.1,355.8c-0.3,0-0.4-0.1-0.4-0.4v-16.5c0-0.2,0.1-0.4,0.4-0.4h2c0.2,0,0.4,0.2,0.4,0.4
			v16.5c0,0.2-0.1,0.4-0.4,0.4H417.1z"/>
		<path class="st1" d="M430.8,356.2c-4.5,0-7.4-2.6-7.4-6.5v-4.8c0-3.9,2.8-6.7,7.4-6.7c4.5,0,7.4,2.7,7.4,6.7v4.8
			C438.2,353.5,435.3,356.2,430.8,356.2z M430.8,353.7c3,0,4.6-1.6,4.6-4.1v-4.8c0-2.5-1.6-4.2-4.6-4.2c-3,0-4.6,1.6-4.6,4.2v4.8
			C426.2,352.1,427.8,353.7,430.8,353.7z M429.1,335.8c-0.3,0-0.5-0.2-0.3-0.5l2.7-4.4c0.1-0.1,0.3-0.2,0.5-0.2h2.1
			c0.3,0,0.4,0.2,0.2,0.5l-3.2,4.4c-0.1,0.1-0.3,0.2-0.5,0.2H429.1z"/>
		<path class="st1" d="M442.5,355.8c-0.2,0-0.4-0.1-0.4-0.4v-15.5c0-0.2,0.1-0.4,0.3-0.5c1.9-0.8,4.1-1.3,6.4-1.3
			c4.5,0,7.5,2.1,7.5,7.2v10.1c0,0.2-0.1,0.4-0.4,0.4h-2c-0.2,0-0.4-0.1-0.4-0.4v-10c0-3.5-1.8-4.8-4.8-4.8c-1.4,0-2.9,0.3-3.9,0.6
			v14.2c0,0.2-0.1,0.4-0.4,0.4L442.5,355.8L442.5,355.8z"/>
	</g>
</g>
</svg>
