<?xml version="1.0" encoding="utf-8"?>
<!-- Generator: Adobe Illustrator 21.0.2, SVG Export Plug-In . SVG Version: 6.00 Build 0)  -->
<svg version="1.1" id="Layer_1" xmlns="http://www.w3.org/2000/svg" xmlns:xlink="http://www.w3.org/1999/xlink" x="0px" y="0px"
	 viewBox="0 0 80 70" style="enable-background:new 0 0 80 70;" xml:space="preserve">
<style type="text/css">
	.st0{fill:#FFFFFF;}
</style>
<g>
	<g>
		<path class="st0" d="M28.4,20.4c3.6,0,5.7,1.9,5.7,5.8v7.1c0,0.3-0.1,0.4-0.4,0.5c-1.5,0.4-3.6,0.8-5.3,0.8
			c-3.7,0-6.1-1.4-6.1-4.5c0-2.7,2.1-4,5.6-4c0.8,0,1.6,0.1,2.2,0.1v-0.3c0-1.4-0.5-2.1-2.2-2.1c-1.2,0-2.5,0.3-3.2,0.7
			c-0.2,0.1-0.5,0.1-0.6-0.1l-1.1-2c-0.1-0.3-0.1-0.4,0-0.6C24.2,21,26.1,20.4,28.4,20.4z M28.3,31.3c0.6,0,1.3-0.1,1.8-0.2v-2.3
			c-0.5-0.1-1.2-0.1-1.8-0.1c-1.4,0-2,0.4-2,1.3C26.2,30.9,27.1,31.3,28.3,31.3z"/>
		<path class="st0" d="M36.2,34.2c-0.3,0-0.4-0.1-0.4-0.4V22c0-0.2,0.1-0.4,0.4-0.5c1.4-0.7,3.1-1.1,4.8-1.1c0.8,0,1.6,0.1,2.5,0.3
			c0.3,0,0.4,0.2,0.4,0.5v2.4c0,0.3-0.2,0.4-0.5,0.4c-0.5-0.1-1.1-0.1-1.6-0.1c-0.8,0-1.5,0.1-2,0.4v9.6c0,0.3-0.1,0.4-0.4,0.4
			L36.2,34.2L36.2,34.2z"/>
		<path class="st0" d="M28.3,50.8c-3.9,0-6.1-2.2-6.1-5.6v-2.9c0-3.4,2.3-5.6,6.1-5.6c1.5,0,2.9,0.4,4.3,1.2
			c0.2,0.1,0.3,0.4,0.1,0.6l-1.4,2.1c-0.1,0.3-0.4,0.3-0.6,0.1c-0.7-0.4-1.4-0.6-2.2-0.6c-1.4,0-2.3,0.8-2.3,2.1V45
			c0,1.5,0.9,2.1,2.3,2.1c0.9,0,1.7-0.3,2.5-0.8c0.3-0.1,0.5-0.1,0.6,0.1l1.4,2.1c0.1,0.2,0.1,0.4-0.1,0.6
			C31.6,50.3,30.1,50.8,28.3,50.8z"/>
		<path class="st0" d="M39.4,50.8c-3.8,0-6.2-2.1-6.2-5.5v-3.1c0-3.5,2.4-5.6,6.2-5.6c3.8,0,6.1,2.1,6.1,5.6v3.1
			C45.6,48.7,43.2,50.8,39.4,50.8z M39.4,47.3c1.4,0,2.1-0.7,2.1-2v-3.1c0-1.3-0.8-2-2.1-2s-2.1,0.8-2.1,2v3.1
			C37.3,46.6,38.1,47.3,39.4,47.3z"/>
	</g>
	<path class="st0" d="M55.6,47.5c1.5-4.3,2.3-8.9,2.1-13.4c-0.1-4.1-0.8-8.3-2.3-12.1c-1.4-3.7-3.3-7.2-5.8-10.4
		c-0.4-0.6-0.9-1.1-1.4-1.7c-0.6,0.6-1.2,1.2-1.8,1.8c-0.4,0.4-0.7,0.7-1.1,1.1c-0.1,0.1-0.1,0.1-0.2,0.2c0,0,0.7,0.8,0.8,0.9
		c2.7,3.3,4.7,7.1,6,11.1c1.4,4.4,1.8,9.2,1.2,13.7c-0.5,4.4-2,8.8-4.2,12.6c-1.1,1.8-2.3,3.6-3.7,5.2c-0.1,0.1,0,0.1,0,0.2
		c0.1,0.1,0.3,0.3,0.4,0.4c0.4,0.4,0.8,0.8,1.2,1.2c0.4,0.4,0.9,0.9,1.4,1.4c2.8-3.2,5.1-6.9,6.7-10.8
		C55.2,48.6,55.4,48.1,55.6,47.5C55.7,47.3,55.6,47.6,55.6,47.5z"/>
</g>
</svg>
