<?xml version="1.0" encoding="utf-8"?>
<!-- Generator: Adobe Illustrator 21.0.2, SVG Export Plug-In . SVG Version: 6.00 Build 0)  -->
<svg version="1.1" id="Layer_1" xmlns="http://www.w3.org/2000/svg" xmlns:xlink="http://www.w3.org/1999/xlink" x="0px" y="0px"
	 viewBox="0 0 195 103" style="enable-background:new 0 0 195 103;" xml:space="preserve">
<style type="text/css">
	.st0{fill:#505050;}
</style>
<path class="st0" d="M130.6,39.7c0.1,0,0.2,0,0.2,0c0,0,0,0,0-0.1v-0.8h0.2c0.1,0,0.2,0,0.3,0.1c0.1,0.1,0.1,0.2,0.2,0.3l0.1,0.4
	c0,0,0,0.1,0,0.1c0,0,0,0,0.1,0c0,0,0.1,0,0.1,0c0,0,0.1,0,0.2,0c0.1,0,0.1,0,0.2,0c0,0,0.1,0,0.1,0c0,0,0,0,0,0c0,0,0,0,0,0
	c0,0,0-0.1,0-0.2l-0.1-0.4c-0.1-0.1-0.1-0.3-0.2-0.3c-0.1-0.1-0.2-0.1-0.3-0.2c0.2,0,0.3-0.1,0.4-0.2c0.1-0.1,0.1-0.2,0.1-0.4
	c0-0.1,0-0.2-0.1-0.3c0-0.1-0.1-0.2-0.2-0.2c-0.1-0.1-0.2-0.1-0.3-0.1c-0.1,0-0.3,0-0.4,0h-0.7c-0.1,0-0.1,0-0.2,0.1
	c0,0-0.1,0.1-0.1,0.2v2.1c0,0,0,0.1,0.1,0.1C130.4,39.7,130.5,39.7,130.6,39.7z M130.9,37.7h0.3c0.1,0,0.1,0,0.2,0
	c0.1,0,0.1,0,0.1,0.1c0,0,0.1,0.1,0.1,0.1c0,0,0,0.1,0,0.1c0,0.1,0,0.2-0.1,0.2c-0.1,0.1-0.2,0.1-0.3,0.1h-0.3V37.7z M131.2,40.8
	c1.2,0,2.3-1,2.3-2.3c0-1.2-1-2.3-2.3-2.3c-1.2,0-2.3,1-2.3,2.3C129,39.8,130,40.8,131.2,40.8z M131.2,36.8c1,0,1.7,0.8,1.7,1.8
	c0,1-0.8,1.8-1.7,1.8c-1,0-1.7-0.8-1.7-1.8C129.5,37.6,130.2,36.8,131.2,36.8z M88.8,65.6c-1.5-2.6-3-9.4-4.5-18.2
	c-0.1-0.6-0.2-0.9-0.8-0.8c-0.7,0-2.7,0.2-3.4,0.5c-0.6,1.4-1.4,2.8-4,6.8c-6.6,10.1-7,12.8-1.1,11.9c-0.1-0.9-0.1-2.3,1-4.3
	c0,0,1.4-0.8,6.8-0.8C83.8,66,84.6,66.1,88.8,65.6z M77.4,58c1.2-2.4,3-5.1,4-7c0.2,1.8,0.9,6.6,0.9,6.6
	C80.2,57.6,78.5,57.8,77.4,58z M100.4,51.8c-1.7,0-3.9,1.6-5.2,4.3c0.2-1.2,0.3-2.7,0.1-3.5c0-0.3-0.2-0.5-1-0.5
	c-0.9,0-2.1,0.4-2.8,0.8c0,0,0.6,1.6-0.7,9.9c-0.4,2.5,1.3,3.2,4.2,2.8c-1.1-1.6,0.9-11.7,5.6-9.6C102.4,53.2,101.9,51.8,100.4,51.8
	z M107.2,57.2c1.3-6.6,1.6-10.2,1.6-11.3c0-0.3-0.1-0.8-1.2-0.8c-1.4,0-2.3,0.3-3.1,0.7c0.1,0.4,0.4,3.2-2,14.6
	c-1,4.9-0.1,5.9,4,5.2C106.2,64.4,106.2,62.2,107.2,57.2z M123.7,54.4c0.2-1.2-0.1-1.8-1.2-2.1c-7.3-2-12.8,2.6-12.8,8.9
	c0,2.4,1.2,4.6,3.8,4.6c2.1,0,4-1.4,5.3-3.1c0,0-0.1,1.1,0.1,1.8c0.2,1.1,1.4,1.7,4,0.9C122.5,63.8,122.7,59.9,123.7,54.4z
	 M120,54.7c-0.4,4-2,8-4.5,8c-1,0-1.8-0.8-1.8-2.1C113.7,57.1,116.5,53.6,120,54.7z M137.9,58c0,11.4-17.9,20.6-39.9,20.6
	c-22,0-39.8-9-39.8-20.1c0-8.1,9.8-15,23.8-18.1c0.2,0.5,0.5,1,0.8,1.5c-11.9,2.9-20.2,9.2-20.2,16.5c0,10.1,15.9,18.3,35.4,18.3
	c8,0,15.9-1.3,21.5-3.6c0.2-0.1,0.1-0.3-0.1-0.3c-17,3.3-33.5-0.1-42.7-4.9c-0.3-0.2-0.2-0.7,0.2-0.6c8.3,3.3,18.8,4.9,27,4.9
	c19.7,0,29.5-6.9,29.5-14.3c0.1-7.7-11.5-16.4-30.6-17.7c0,0,0,0,0,0c1.6,0.1,3.3-0.2,4.7-1c6.9,0.9,13.3,2.7,18.6,5.4
	c0.2,0.1,0.4-0.2,0.2-0.3c-4.5-3.3-10.9-5.5-16.9-6.9c0,0,0,0,0,0c0.1-0.2,0.2-0.3,0.3-0.5c0,0,0-0.1,0.1-0.1
	c0.1-0.2,0.2-0.3,0.2-0.5c0,0,0,0,0-0.1C126.2,39.3,137.9,47.8,137.9,58z M97.7,38c2.7-0.5,8.2,6.8,0.1,9.4
	C88.2,50.4,95.3,38.4,97.7,38z M108.1,30.8c-0.6,0.7-1.7,1.8-2.6,2c4.2-5-1.8-8.5-5.5-8.4c-1.1,0-2,0.5-2.2,1.5
	c-0.6,2.8,1.9,5.9,1,10c-0.6,2.8,8.7,5.5,10.4-0.7C109.5,34.2,109.4,31.9,108.1,30.8z M85.4,43c5.8,4.2,10-3.6,9.3-4.4
	c-1.5-1.8-0.5-4.7,2.7-4.2c1.7,0.2-0.5-9.1-5.6-9.1c-4.8,0-11.7,8.6-3.3,11.4c-1.7,0.1-4-0.1-5.3-0.7C82.1,37.1,82.7,41.1,85.4,43z"
	/>
</svg>
