<?xml version="1.0" encoding="utf-8"?>
<!-- Generator: Adobe Illustrator 21.0.2, SVG Export Plug-In . SVG Version: 6.00 Build 0)  -->
<svg version="1.1" id="svg3194" xmlns="http://www.w3.org/2000/svg" xmlns:xlink="http://www.w3.org/1999/xlink" x="0px" y="0px"
	 viewBox="0 0 195 103" style="enable-background:new 0 0 195 103;" xml:space="preserve">
<style type="text/css">
	.st0{fill:#505050;}
</style>
<title>CHEIL blanco</title>
<g id="layer1">
	<path id="path3125" class="st0" d="M110.4,45.1c-5.8,0-9.5,4.2-9.5,9.5c0,5.8,4,9.4,9.9,9.4c3.7,0,7.6-2.2,8.8-6h-5.8
		c-0.6,1.1-1.8,1.8-3,1.7c-2,0-3.2-1.5-3.4-3.7H120c0.1-0.5,0.2-0.9,0.2-1.4C120.1,49.7,117,45,110.4,45.1 M107.3,52.5
		c0.3-2,1.5-3.1,3.5-3.1c1.7,0,3,1.3,3,3v0.1H107.3z M93.7,45.7c-1.9-0.1-3.8,0.6-5.3,1.9v-8h-6.6v23.8h6.6v-9.1
		c0-2.7,1.4-3.4,2.5-3.4c2,0,2.3,1.4,2.3,3.4v9.1h6.6V51.5C99.8,47.6,96.9,45.7,93.7,45.7 M69.1,58.1c-3.7,0-4.8-3.3-4.8-6.5
		s1.2-6.5,4.8-6.5c2.1-0.1,3.8,1.4,4.2,3.5h7.3c-0.7-6-5.1-9.5-11.2-9.5c-7.3,0-12.4,5.2-12.4,12.5c0,7.1,4.7,12.5,12.4,12.5
		c6.8,0,11.3-5.1,11.3-9.9h-7.4C72.8,56.3,71.7,58.1,69.1,58.1 M121.3,63.4h6.6V46.1h-6.6V63.4z M131.5,63.4h6.6V39.6h-6.6V63.4z
		 M121.3,45.4l6.9-5.9h-6.9L121.3,45.4z"/>
</g>
</svg>
