<?xml version="1.0" encoding="utf-8"?>
<!-- Generator: Adobe Illustrator 21.0.2, SVG Export Plug-In . SVG Version: 6.00 Build 0)  -->
<svg version="1.1" id="Layer_1" xmlns="http://www.w3.org/2000/svg" xmlns:xlink="http://www.w3.org/1999/xlink" x="0px" y="0px"
	 viewBox="0 0 195 103" style="enable-background:new 0 0 195 103;" xml:space="preserve">
<style type="text/css">
	.st0{fill:#505050;}
</style>
<title>CLARO blanco</title>
<path class="st0" d="M41.8,59.2c-4.5,0-8.2-3.7-8.2-8.2s3.7-8.2,8.2-8.2c3.2,0,6.2,1.9,7.5,4.8h5.5c-1.9-7.2-9.2-11.5-16.4-9.6
	s-11.5,9.2-9.6,16.4S38,65.9,45.2,64c4.7-1.2,8.3-4.8,9.6-9.5h-5.6C47.9,57.4,45,59.2,41.8,59.2z"/>
<path class="st0" d="M109.5,42.8c-5.8,0-10.6,4.7-10.6,10.6S103.6,64,109.5,64c5.8,0,10.6-4.7,10.6-10.6l0,0
	C120.1,47.5,115.3,42.8,109.5,42.8z M109.5,59.1c-3.2,0-5.7-2.6-5.7-5.7c0-3.2,2.6-5.7,5.7-5.7c3.2,0,5.7,2.6,5.7,5.7l0,0
	C115.2,56.5,112.6,59.1,109.5,59.1L109.5,59.1L109.5,59.1z"/>
<path class="st0" d="M77.8,62.2v2H83l-0.2-16.5c0,0,0.3-4.8-8.4-4.8s-9,6.9-8.8,7.1h5.3c0,0,0.1-3.8,4.7-2.8c0,0,2.2,0,2,2.1
	s-3.4,2.1-5.4,2.1s-9.6,1.9-6.2,10.4c0,0,1.8,3,7.1,2.2c1.6-0.1,3.2-0.8,4.5-1.8C79.6,60.6,77.8,62.2,77.8,62.2z M73.2,60.7
	c-3.9,0.3-3.6-5-0.6-5.4c1.7-0.2,3.4-0.7,4.9-1.5c0.1,0.6,0.1,1.2,0.1,1.9C77.6,57.3,77,60.4,73.2,60.7L73.2,60.7z"/>
<path class="st0" d="M98.1,48.7c-0.6-0.4-6.6-1-6.6,5.1V64h-5.2V44h5.2v2.2c0,0,1.7-2.9,6.6-3.1V48.7z"/>
<rect x="57.1" y="37.6" class="st0" width="5.2" height="26.4"/>
<rect x="108.7" y="25.7" class="st0" width="5" height="13.1"/>
<rect x="124.4" y="47.8" class="st0" width="13.1" height="5"/>
<rect x="117.3" y="33.5" transform="matrix(0.7071 -0.7071 0.7071 0.7071 11.5561 99.7108)" class="st0" width="17.7" height="4.8"/>
</svg>
