<?xml version="1.0" encoding="utf-8"?>
<!-- Generator: Adobe Illustrator 21.0.2, SVG Export Plug-In . SVG Version: 6.00 Build 0)  -->
<svg version="1.1" id="Layer_1" xmlns="http://www.w3.org/2000/svg" xmlns:xlink="http://www.w3.org/1999/xlink" x="0px" y="0px"
	 viewBox="0 0 195 103" style="enable-background:new 0 0 195 103;" xml:space="preserve">
<style type="text/css">
	.st0{fill-rule:evenodd;clip-rule:evenodd;fill:#505050;}
</style>
<path class="st0" d="M87.3,51H98v1.7h-9.3l0,5.8h7.5v-2h-5.5l0-1.7H98v5.5H84.2v-6C84.2,52.4,85.6,51,87.3,51L87.3,51z M68.5,54.1v6
	h14.1v-1.7H73v-2h9.4v-1.7H73v-2h9.6V51H71.6C69.9,51,68.5,52.4,68.5,54.1L68.5,54.1z M142.9,54.6L142.9,54.6h-7.1v-1.9h7.1
	c0.5,0,0.9,0.4,0.9,0.9C143.8,54.2,143.4,54.6,142.9,54.6L142.9,54.6z M142.9,51h-8.4c-1.7,0-3.2,1.4-3.2,3.2v6h4.5v-3.8l5,3.8h5.9
	l-5.1-3.7h1.3c1.5,0,2.7-1.2,2.7-2.7C145.6,52.2,144.4,51,142.9,51L142.9,51z M103.1,51c-1.7,0-3.2,1.4-3.2,3.2v6h13.8v-5.5h-7.3
	l0,1.7h5.5v2h-7.5l0-5.8h9.3V51H103.1L103.1,51z M115.5,54.1v6h14.1v-1.7H120v-2h9.4v-1.7H120v-2h9.6V51h-10.9
	C116.9,51,115.5,52.4,115.5,54.1L115.5,54.1z M46.9,51.2V60h14.8v-1.6h-7.9v-1.9h7.9v-1.7h-8v-2h8v-1.6H46.9L46.9,51.2z M68.5,45.8
	h76.8v-9.4H68.5V45.8L68.5,45.8z"/>
</svg>
