<?xml version="1.0" encoding="utf-8"?>
<!-- Generator: Adobe Illustrator 21.0.2, SVG Export Plug-In . SVG Version: 6.00 Build 0)  -->
<svg version="1.1" id="Capa_1" xmlns="http://www.w3.org/2000/svg" xmlns:xlink="http://www.w3.org/1999/xlink" x="0px" y="0px"
	 viewBox="0 0 195 103" style="enable-background:new 0 0 195 103;" xml:space="preserve">
<style type="text/css">
	.st0{fill:#505050;}
</style>
<title>FRAVEGA blanco</title>
<g>
	<path class="st0" d="M44.4,52.4c0,0,0.1-0.7-0.8-0.7h-6.3c-0.9,0-0.7-0.7-0.7-0.7l0.2-1.5c0.1-0.5,0.5-0.8,0.9-0.8h7.1
		c0.6,0,0.7-0.7,0.7-0.7l0.2-1.3c0,0,0.1-0.8-0.8-0.8H34.4c-0.5-0.1-0.9,0.3-0.9,0.7L31.1,59c0,0-0.2,0.7,0.7,0.7h2.4
		c0.6,0,0.8-0.7,0.8-0.7l0.8-4.1c0.1-0.5,0.5-0.8,0.9-0.8h6.7c0.6,0,0.7-0.7,0.7-0.7L44.4,52.4L44.4,52.4z M95.9,57.1
		c-0.9,0-0.7-0.7-0.7-0.7l0.3-1.6c0.1-0.5,0.5-0.8,0.9-0.7h7c0.6,0,0.7-0.7,0.7-0.7l0.2-1.3c0,0,0.1-0.7-0.8-0.7H97
		c-0.9,0-0.7-0.7-0.7-0.7l0.2-1.3c0.1-0.5,0.5-0.8,0.9-0.8h7.5c0.6,0,0.8-0.7,0.8-0.7l0.2-1.3c0,0,0.1-0.8-0.8-0.8H94.1
		c-0.5,0-0.9,0.3-0.9,0.7l-2.4,12.4c0,0-0.2,0.7,0.7,0.7h11.7c0.6,0,0.7-0.7,0.7-0.7l0.2-1.3c0.1-0.4-0.2-0.7-0.5-0.8
		c-0.1,0-0.2,0-0.2,0L95.9,57.1z M116,51.4c-0.5,0-0.9,0.3-0.9,0.8l-0.2,1.3c0,0-0.2,0.7,0.7,0.7h2.2c0,0,0.6,0,0.5,0.7l-0.2,1
		c0,0-0.1,0.9-0.7,1c-1.2,0.3-2.4,0.5-3.8,0.5c-2.3,0-5.1-0.9-5.1-4.1s4.1-5.1,7-5.1c1.4,0,2.8,0.4,4.1,1.1c0.2,0.2,0.6,0.2,0.9,0.1
		l2-1.3c0,0,0.9-0.4,0.2-0.9c0,0-2-1.6-6.8-1.6c-4.9,0-11,2.3-11.5,8c0,0-1,6.5,8.8,6.6c2.3,0,4.6-0.4,6.9-1c0,0,1.2-0.3,1.3-1.3
		l1.1-5.6c0.1-0.4-0.2-0.8-0.5-0.9c-0.1,0-0.2,0-0.3,0L116,51.4z M80.1,59.8c-0.4,0-0.8-0.3-0.9-0.7l-5-12.4c0,0-0.3-0.8,0.4-0.8h3
		c0.5,0,0.9,0.3,1.1,0.8l3.1,8.1c0,0,0.2,0.8,0.8,0l5.9-8.1c0.3-0.4,0.8-0.7,1.3-0.7h2.5c0,0,1,0,0.5,0.8l-9.4,12.3
		c-0.3,0.4-0.8,0.7-1.3,0.7L80.1,59.8z M140.6,59.1l-5-12.4c-0.2-0.5-0.5-0.7-1-0.8h-1.7c-0.5,0.1-0.9,0.3-1.3,0.8l-9.9,12.4
		c-0.6,0.8,0.4,0.7,0.4,0.7h2.7c0.5,0,0.9-0.3,1.3-0.7l1.3-1.7c0.2-0.4,0.6-0.6,1.1-0.6h6.3c0.5,0,0.9,0.3,0.9,0.7l0.6,1.6
		c0.2,0.4,0.5,0.7,0.9,0.7h3C140.2,59.7,141,59.9,140.6,59.1L140.6,59.1z M133.6,54.2h-2.8c-0.9,0-0.5-0.6-0.5-0.6l2-2.8
		c0.9-1.3,1.2,0,1.2,0l0.9,2.8C134.6,54.3,133.7,54.2,133.6,54.2L133.6,54.2z M68.8,45.9c-0.5,0.1-0.9,0.4-1.2,0.7L58.7,58
		c-0.2,0.3-0.6,0.5-0.9,0.3c-0.2-0.1-0.2-0.2-0.3-0.3l-2-3.1c-0.6-0.9,0.7-1.3,0.7-1.3c2-0.5,3.4-2.1,3.5-4.1c0-3.7-6.6-3.4-6.6-3.4
		h-5.7c-0.5,0-0.9,0.3-0.9,0.7L44,59.1c0,0-0.2,0.7,0.7,0.7h2.4c0.6,0,0.8-0.7,0.8-0.7l0.8-4.1c0.1-0.5,0.5-0.8,0.9-0.7h0.7
		c0.5,0,0.9,0.7,0.9,0.7l2.3,4.2c0.2,0.4,0.6,0.7,1,0.8h6.3c0.5,0,0.9-0.3,1.3-0.7l1.3-1.7c0.2-0.4,0.6-0.6,1.1-0.6h6.3
		c0.5,0,0.9,0.3,0.9,0.7l0.6,1.6c0.2,0.4,0.5,0.7,0.9,0.7h2.9c0,0,0.9,0.1,0.5-0.7l-5-12.4c-0.2-0.5-0.5-0.7-1-0.8L68.8,45.9
		L68.8,45.9z M69.6,54.2h-2.9c-0.9,0-0.5-0.6-0.5-0.6l2-2.8c0.9-1.3,1.2,0,1.2,0l0.9,2.8C70.7,54.3,69.6,54.2,69.6,54.2L69.6,54.2z
		 M52.7,51.6h-2.3c-0.9,0-0.7-0.7-0.7-0.7l0.3-1.6c0.1-0.5,0.5-0.8,0.9-0.8h2c0,0,2.1-0.1,2.7,0.6c0.2,0.3,0.3,0.6,0.2,1
		C55.5,50.8,54.8,51.5,52.7,51.6L52.7,51.6z M73.3,41.5h-1.9c-0.4,0.1-0.8,0.2-1,0.6L69,43.9c-0.5,0.6,0.4,0.6,0.4,0.6h1.9
		c0.4-0.1,0.8-0.2,1-0.6l1.4-1.8C74.2,41.5,73.3,41.5,73.3,41.5z"/>
	<path class="st0" d="M149.5,61.1c7-1.9,14.5-4.7,14.5-8.8c0,0,0.9-5.4-14.1-8.3c0,0-2.7-0.5-3.3,0s1.6,1.3,1.6,1.3
		c4.1,1.6,8.5,4.1,8.6,7.2c0,0,1,3.9-8.6,7.7c0,0-2,0.7-1.7,1.3C146.7,61.9,148.7,61.2,149.5,61.1"/>
	<path class="st0" d="M147.7,59.4c4.1-1.6,8-3.8,8-6.8c0,0,0.6-3.5-7.8-6.9c-0.2-0.1-1.3-0.5-1.9,0.1s0.9,1.3,0.9,1.3
		c1.8,1.2,2.9,3.1,3.1,5.2c0,1.9-1.6,3.6-3.5,5.1c0,0-1.9,1.3-1.4,2C145.5,60.1,147,59.6,147.7,59.4"/>
</g>
</svg>
