<?xml version="1.0" encoding="utf-8"?>
<!-- Generator: Adobe Illustrator 21.0.2, SVG Export Plug-In . SVG Version: 6.00 Build 0)  -->
<svg version="1.1" id="Capa_1" xmlns="http://www.w3.org/2000/svg" xmlns:xlink="http://www.w3.org/1999/xlink" x="0px" y="0px"
	 viewBox="0 0 195 103" style="enable-background:new 0 0 195 103;" xml:space="preserve">
<style type="text/css">
	.st0{fill:#505050;}
</style>
<title>HAVANNA blanco</title>
<g>
	<path class="st0" d="M103.1,43l-3.2,14.1h-0.4L96.1,43h-3.7l4.2,17.1h6L107,43H103.1z M102.1,59.4h-4.9l-3.9-15.6h2.2L99,57.8h1.4
		l3.3-14.1h2.3L102.1,59.4z"/>
	<path class="st0" d="M144.9,53.5L140,42.9h-5v17.2h3.6V48.5l5.3,11.6h4.6V42.9h-3.6V53.5z M145.6,43.6h2.2v15.7h-3.4l-6.5-13.8
		v13.8h-2.2V43.7h3.9l6,13.2V43.6z"/>
	<path class="st0" d="M84.4,43l-4.3,17.1H84l0.7-2.8h5.5l0.7,2.8h3.7L90.4,43H84.4z M91.4,59.4l-0.7-2.8H84l-0.7,2.8H81l3.9-15.6
		h4.9l3.9,15.6H91.4z"/>
	<path class="st0" d="M88.1,45.9h-1.4l-2.1,8.5h5.6L88.1,45.9z M87.2,46.6h0.3l1.7,7.1h-3.8L87.2,46.6z"/>
	<path class="st0" d="M75.5,50.2h-5.4v-7.3h-3.6v17.2h3.6v-6.3h5.4v6.3h3.6V42.9h-3.6V50.2z M76.2,43.6h2.2v15.7h-2.2v-6.3h-6.8v6.3
		h-2.2V43.6h2.2v7.3h6.8V43.6z"/>
	<polygon class="st0" points="77.4,52.5 77,52.5 77,58.6 77.7,58.6 77.7,44.5 77,44.5 77,51.8 77.4,51.8 	"/>
	<rect x="68.7" y="51.8" class="st0" width="8.3" height="0.7"/>
	<rect x="77" y="51.8" class="st0" width="0.4" height="0.7"/>
	<polygon class="st0" points="68.4,51.8 68.7,51.8 68.7,44.5 68,44.5 68,58.6 68.7,58.6 68.7,52.5 68.4,52.5 	"/>
	<rect x="68.4" y="51.8" class="st0" width="0.4" height="0.7"/>
	<polygon class="st0" points="83.5,55.1 83.3,55.8 91.4,55.8 91.2,55.1 	"/>
	<polygon class="st0" points="85.5,44.5 81.9,58.6 82.6,58.6 83.3,55.8 83.1,55.8 83.1,55.1 83.5,55.1 86,45.3 88.6,45.3 91.2,55.1 
		91.5,55.1 91.5,55.8 91.4,55.8 92.1,58.6 92.9,58.6 89.2,44.5 	"/>
	<polygon class="st0" points="91.5,55.1 91.2,55.1 91.4,55.8 91.5,55.8 	"/>
	<polygon class="st0" points="83.1,55.1 83.1,55.8 83.3,55.8 83.5,55.1 	"/>
	<polygon class="st0" points="104.5,44.5 101,58.2 98.4,58.2 94.9,44.5 94.2,44.5 97.8,59 101.6,59 105.3,44.4 	"/>
	<polygon class="st0" points="136.5,44.1 136.5,58.6 137.2,58.6 137.2,44.9 138.3,44.9 144.9,58.7 147.1,58.7 147.1,44.5 
		146.4,44.5 146.4,57.9 145.3,57.9 138.8,44.1 	"/>
	<path class="st0" d="M112.8,45.9h-1.4l-2.1,8.5h5.6L112.8,45.9z M111.9,46.6h0.3l1.7,7.1h-3.8L111.9,46.6z"/>
	<path class="st0" d="M109.1,43l-4.3,17.1h3.9l0.7-2.8h5.5l0.7,2.8h3.7L115.1,43H109.1z M116,59.4l-0.7-2.8h-6.7l-0.7,2.8h-2.3
		l3.9-15.6h4.9l3.9,15.6H116z"/>
	<polygon class="st0" points="108.1,55.1 107.9,55.8 116,55.8 115.9,55.1 	"/>
	<polygon class="st0" points="110.1,44.5 106.5,58.6 107.2,58.6 107.9,55.8 107.8,55.8 107.8,55.1 108.1,55.1 110.7,45.3 
		113.3,45.3 115.9,55.1 116.1,55.1 116.1,55.8 116,55.8 116.8,58.6 117.5,58.6 113.9,44.5 	"/>
	<polygon class="st0" points="116.1,55.1 115.9,55.1 116,55.8 116.1,55.8 	"/>
	<polygon class="st0" points="107.8,55.1 107.8,55.8 107.9,55.8 108.1,55.1 	"/>
	<path class="st0" d="M159.5,43h-6l-4.3,17.1h3.9l0.7-2.8h5.5l0.7,2.8h3.7L159.5,43z M159.9,56.6h-6.7l-0.7,2.8h-2.3l3.9-15.6h4.9
		l3.9,15.6h-2.2L159.9,56.6z"/>
	<path class="st0" d="M157.3,45.9h-1.4l-2.1,8.5h5.6L157.3,45.9z M156.4,46.6h0.3l1.7,7.1h-3.8L156.4,46.6z"/>
	<polygon class="st0" points="152.6,55.1 152.5,55.8 160.6,55.8 160.4,55.1 	"/>
	<polygon class="st0" points="158.4,44.5 154.6,44.5 151,58.6 151.7,58.6 152.5,55.8 152.3,55.8 152.3,55.1 152.6,55.1 155.2,45.3 
		157.8,45.3 160.4,55.1 160.6,55.1 160.6,55.8 160.6,55.8 161.3,58.6 162,58.6 	"/>
	<polygon class="st0" points="160.6,55.1 160.4,55.1 160.6,55.8 160.6,55.8 	"/>
	<polygon class="st0" points="152.3,55.1 152.3,55.8 152.5,55.8 152.6,55.1 	"/>
	<path class="st0" d="M129.8,53.5l-4.9-10.6h-5v17.2h3.6V48.5l5.3,11.6h4.6V42.9h-3.6V53.5z M130.6,43.6h2.2v15.7h-3.4l-6.5-13.6
		v13.6h-2.2V43.7h3.9l6,13.2V43.6z"/>
	<polygon class="st0" points="121.4,44.1 121.4,58.6 122.1,58.6 122.1,44.9 123.2,44.9 129.8,58.7 132,58.7 132,44.5 131.3,44.5 
		131.3,57.9 130.2,57.9 123.7,44.1 	"/>
	<path class="st0" d="M46.1,32.2c-1.5,0-14.8,0.3-14.8,4.1v21.6v0.1c0.1,0.3,1.4,7.9,14.4,12.9l0.2,0.1l0.2-0.1
		c13-4.9,14.4-12.6,14.4-12.9V36.3v-0.2C60.3,36,58.7,32.2,46.1,32.2z M59.6,57.8c-0.1,0.5-1.7,7.6-13.8,12.3
		C33.7,65.5,32.1,58.3,32,57.8V36.3c0-2.3,8.7-3.3,14-3.4c11.2,0,13.3,3,13.6,3.4L59.6,57.8L59.6,57.8z"/>
	<path class="st0" d="M48.5,51.5h-5.4v-7.3h-3.6v17.2h3.6v-6.3h5.4v6.3h3.6V44.2h-3.6V51.5z M49.2,44.9h2.2v15.7h-2.2v-6.3h-6.8v6.3
		h-2.2V44.9h2.2v7.3h6.8V44.9z"/>
	<polygon class="st0" points="50.3,53.8 49.9,53.8 49.9,59.9 50.7,59.9 50.7,45.8 49.9,45.8 49.9,53 50.3,53 	"/>
	<rect x="41.7" y="53" class="st0" width="8.3" height="0.7"/>
	<rect x="49.9" y="53" class="st0" width="0.4" height="0.7"/>
	<polygon class="st0" points="41.4,53 41.7,53 41.7,45.8 41,45.8 41,59.9 41.7,59.9 41.7,53.8 41.4,53.8 	"/>
	<rect x="41.4" y="53" class="st0" width="0.4" height="0.7"/>
	<path class="st0" d="M43,42c0.6,0,1.2-0.6,1.2-1.2c0-0.6-0.6-1.2-1.2-1.2c-0.6,0-1.2,0.6-1.2,1.2C41.8,41.6,42.3,42,43,42z
		 M43,40.2c0.4,0,0.7,0.3,0.7,0.7s-0.3,0.7-0.7,0.7c-0.4,0-0.7-0.3-0.7-0.7l0,0C42.2,40.5,42.6,40.2,43,40.2L43,40.2L43,40.2z"/>
	<path class="st0" d="M45.8,42c0.6,0,1.2-0.6,1.2-1.2c0-0.6-0.6-1.2-1.2-1.2c-0.6,0-1.2,0.6-1.2,1.2C44.6,41.6,45.1,42,45.8,42z
		 M45.8,40.2c0.4,0,0.7,0.3,0.7,0.7s-0.3,0.7-0.7,0.7c-0.4,0-0.7-0.3-0.7-0.7l0,0C45.1,40.5,45.4,40.2,45.8,40.2L45.8,40.2
		L45.8,40.2z"/>
	<path class="st0" d="M48.7,42c0.6,0,1.2-0.6,1.2-1.2c0-0.6-0.6-1.2-1.2-1.2s-1.2,0.6-1.2,1.2C47.5,41.6,48,42,48.7,42z M48.7,40.2
		c0.4,0,0.7,0.3,0.7,0.7s-0.3,0.7-0.7,0.7s-0.7-0.3-0.7-0.7l0,0C48,40.5,48.3,40.2,48.7,40.2L48.7,40.2L48.7,40.2z"/>
	<rect x="45.6" y="37.8" class="st0" width="0.5" height="0.4"/>
	<rect x="45.6" y="38.6" class="st0" width="0.5" height="0.4"/>
	<rect x="45.2" y="38.1" class="st0" width="0.4" height="0.5"/>
	<rect x="46.1" y="38.1" class="st0" width="0.4" height="0.5"/>
	<rect x="45.6" y="38.1" class="st0" width="0.5" height="0.5"/>
</g>
</svg>
