<?xml version="1.0" encoding="utf-8"?>
<!-- Generator: Adobe Illustrator 21.0.2, SVG Export Plug-In . SVG Version: 6.00 Build 0)  -->
<svg version="1.1" id="Layer_1" xmlns="http://www.w3.org/2000/svg" xmlns:xlink="http://www.w3.org/1999/xlink" x="0px" y="0px"
	 viewBox="0 0 195 103" style="enable-background:new 0 0 195 103;" xml:space="preserve">
<style type="text/css">
	.st0{fill:#505050;}
</style>
<title>HP blanco</title>
<path class="st0" d="M97.5,74.5c-0.2,0-0.5,0-0.6,0l4.8-12.9h6.4c1.1,0,2.5-0.9,2.8-2l5.1-14c0.8-2.3-0.5-4.1-2.9-4.1h-9.1
	l-7.5,20.7l0,0l-4.3,11.7C82,71.5,74.5,62.4,74.5,51.5c0-10.6,7.1-19.5,16.7-22.1l-4.5,12.1l0,0l-7.4,20.1h5.1l6.1-17.2h3.7l-6.3,17
	h4.9l5.8-16c0.8-2.3-0.5-4.1-2.9-4.1h-4.1l4.8-12.9c0.3,0,0.6,0,1.1,0c12.7,0,23,10.3,23,23S110.2,74.5,97.5,74.5z M111.5,44.4h-3.7
	l-5.1,14.1h3.7L111.5,44.4z"/>
</svg>
