<?xml version="1.0" encoding="utf-8"?>
<!-- Generator: Adobe Illustrator 21.0.2, SVG Export Plug-In . SVG Version: 6.00 Build 0)  -->
<svg version="1.1" id="Layer_1" xmlns="http://www.w3.org/2000/svg" xmlns:xlink="http://www.w3.org/1999/xlink" x="0px" y="0px"
	 viewBox="0 0 195 103" style="enable-background:new 0 0 195 103;" xml:space="preserve">
<style type="text/css">
	.st0{fill:#505050;}
</style>
<title>SAMSUNG blanco</title>
<path class="st0" d="M41,55.5c0.2,0.5,0.2,1,0,1.4c-0.2,0.6-0.6,1.3-1.8,1.3c-1.2,0-1.8-0.6-1.8-1.7v-1.8h-5v1.4
	c0,4.2,3.3,5.4,6.7,5.4c3.4,0,6.2-1.1,6.6-4.2c0.2-1,0.2-2.1,0-3c-0.8-3.9-7.8-5-8.4-7.3c-0.1-0.3-0.1-0.6,0-1
	c0.2-0.6,0.6-1.3,1.7-1.3c1.1,0,1.8,0.6,1.8,1.7v1.1h4.6v-1.3c0-4.1-3.7-4.7-6.2-4.7c-3.3,0-6,1.1-6.5,4.2c-0.2,0.8-0.2,1.7,0.1,2.6
	C33.5,52,40.1,53,41,55.5"/>
<path class="st0" d="M101.6,55.4c0.2,0.5,0.2,1,0,1.4c-0.2,0.6-0.6,1.3-1.8,1.3c-1.1,0-1.8-0.6-1.8-1.7v-1.8h-5v1.4
	c0,4.2,3.2,5.4,6.7,5.4c3.4,0,6.1-1.1,6.5-4.2c0.2-1,0.2-2,0-3c-0.8-3.8-7.8-5-8.3-7.2c-0.1-0.3-0.1-0.6,0-1
	c0.2-0.6,0.6-1.3,1.7-1.3c1.1,0,1.7,0.6,1.7,1.7v1.1h4.6v-1.3c0-4-3.6-4.6-6.2-4.6c-3.3,0-5.9,1.1-6.4,4.1c-0.2,0.8-0.2,1.7,0.1,2.5
	C94.1,52,100.6,53,101.6,55.4"/>
<polygon class="st0" points="140.1,57.1 139.9,42.1 144.4,42.1 144.4,60.5 137.9,60.5 133.2,45 133.4,60.5 128.9,60.5 128.9,42.1 
	135.7,42.1 "/>
<polygon class="st0" points="56.5,43.4 53.9,60.7 48.9,60.7 52.3,42.1 60.6,42.1 64.1,60.7 59,60.7 "/>
<polygon class="st0" points="83.7,43.4 80.5,60.7 75.7,60.7 72.5,43.4 72.4,60.7 67.7,60.7 68.1,42.1 75.7,42.1 78.1,56.7 
	80.5,42.1 88.1,42.1 88.5,60.7 83.8,60.7 "/>
<path class="st0" d="M117.2,58c1.3,0,1.7-0.9,1.8-1.4c0-0.2,0.1-0.5,0.1-0.7V42.1h4.7v13.4c0,0.3,0,1-0.1,1.2
	c-0.3,3.5-3,4.6-6.5,4.6c-3.4,0-6.2-1.1-6.5-4.6c0-0.2-0.1-0.9-0.1-1.2V42.1h4.7v13.8c0,0.2,0,0.5,0.1,0.7
	C115.5,57,115.9,58,117.2,58"/>
<path class="st0" d="M156,57.7c1.4,0,1.8-0.9,1.9-1.4c0-0.2,0.1-0.5,0.1-0.7v-2.7H156v-2.7h6.6v5c0,0.3,0,0.6-0.1,1.2
	c-0.3,3.4-3.3,4.6-6.6,4.6s-6.2-1.2-6.6-4.6c-0.1-0.6-0.1-0.9-0.1-1.2v-7.8c0-0.3,0.1-0.9,0.1-1.2c0.4-3.5,3.2-4.6,6.6-4.6
	c3.3,0,6.2,1.1,6.6,4.6c0,0.4,0.1,0.8,0.1,1.2v0.6h-4.7v-1c0-0.2,0-0.5-0.1-0.7c-0.1-0.4-0.4-1.4-1.8-1.4c-1.4,0-1.8,0.9-1.8,1.4
	c-0.1,0.3-0.1,0.6-0.1,0.9v8.6c0,0.2,0,0.5,0.1,0.7C154.1,56.9,154.6,57.7,156,57.7"/>
</svg>
