<?xml version="1.0" encoding="utf-8"?>
<!-- Generator: Adobe Illustrator 21.0.2, SVG Export Plug-In . SVG Version: 6.00 Build 0)  -->
<svg version="1.1" id="Layer_1" xmlns="http://www.w3.org/2000/svg" xmlns:xlink="http://www.w3.org/1999/xlink" x="0px" y="0px"
	 viewBox="0 0 254.5 357.8" style="enable-background:new 0 0 254.5 357.8;" xml:space="preserve">
<style type="text/css">
	.st0{fill:#FFFFFF;}
</style>
<g>
	<g>
		<path class="st0" d="M44.2,74.5c25.6,0,40.6,13.4,40.6,41.5v50.8c0,1.9-0.9,3.2-2.8,3.7c-10.9,3.3-25.6,5.4-38.2,5.4
			c-26.7,0-43.6-10-43.6-31.9c0-19.3,15.2-28.9,40.4-28.9c5.7,0,11.1,0.6,15.8,1.1v-1.9c0-9.8-3.5-15.2-15.6-15.2
			c-8.2,0-17.8,2.2-23.2,5.2c-1.7,0.9-3.5,0.7-4.4-1.1L5.7,88.8c-0.9-1.9-0.9-3.2,0.4-4.1C14.7,79.1,28.3,74.5,44.2,74.5z
			 M43.9,152.9c4.3,0,9.3-0.7,12.6-1.5v-16.3c-3.7-0.7-8.7-1.1-12.8-1.1c-10.2,0-14.6,3.3-14.6,9.3C29,149.8,35,152.9,43.9,152.9z"
			/>
		<path class="st0" d="M99.9,173.5c-2.2,0-3.3-1.1-3.3-3.3V86c0-1.7,0.7-3,2.4-3.9c10.2-5,22.1-7.6,34.1-7.6c5.6,0,11.3,0.7,18,1.9
			c2,0.4,3,1.5,3,3.5V97c0,2.2-1.3,3.3-3.5,3c-3.7-0.6-7.8-0.7-11.5-0.7c-5.6,0-10.6,0.9-14.1,2.4v68.6c0,2.2-1.1,3.3-3.2,3.3H99.9
			V173.5z"/>
		<path class="st0" d="M43.9,292.1c-28,0-43.9-15.6-43.9-40.4v-21c0-24.5,16.1-40.1,43.8-40.1c10.8,0,21,3,30.4,8.7
			c1.7,1.1,2,2.8,0.9,4.6l-9.8,14.8c-1.1,1.9-2.6,2-4.6,1.1c-4.8-2.6-10.2-4.3-15.6-4.3c-10.2,0-16.3,5.6-16.3,15v21
			c0,10.4,6.5,15.4,16.1,15.4c6.3,0,12.2-1.9,17.8-5.4c1.9-1.1,3.5-0.7,4.6,0.9l10,14.8c1.1,1.7,0.9,3.3-0.6,4.4
			C67.3,288.6,56.7,292.1,43.9,292.1z"/>
		<path class="st0" d="M123.3,292.1c-27.3,0-44.1-14.8-44.1-39.3v-22.3c0-24.8,16.9-39.9,44.1-39.9c27.1,0,43.9,15,43.9,39.9v22.3
			C167.3,277.3,150.4,292.1,123.3,292.1z M123.3,267.1c9.8,0,15.2-5,15.2-14.3v-22.3c0-9.3-5.4-14.6-15.2-14.6s-15.2,5.4-15.2,14.6
			v22.3C108.1,262.1,113.5,267.1,123.3,267.1z"/>
	</g>
	<path class="st0" d="M239.1,268.9c10.9-30.7,16.1-63.4,15.4-96c-0.7-29.6-6.2-59.1-16.4-86.9c-9.8-26.6-23.9-51.7-41.5-74
		c-3.2-4.1-6.6-8.1-10.1-12c-4.4,4.4-8.7,8.7-13.1,13.1c-2.6,2.6-5.2,5.2-7.8,7.8c-0.6,0.6-1.1,1.1-1.7,1.7
		c-0.2,0.2,4.9,5.9,5.4,6.6c19.1,23.4,33.6,50.5,42.6,79.3c9.8,31.4,12.9,65.5,9,98.3c-3.7,31.8-14,62.7-30,90.5
		c-7.6,13.2-16.5,25.7-26.6,37.3c-0.8,0.9-0.4,0.9,0.4,1.7c1,1,1.9,1.9,2.9,2.9c2.9,2.9,5.8,5.8,8.8,8.8c3.3,3.3,6.6,6.6,9.9,9.9
		c20.3-22.8,36.7-49.1,48.2-77.4C236.2,276.6,237.7,272.8,239.1,268.9C239.6,267.5,238.9,269.3,239.1,268.9z"/>
</g>
</svg>
