<?xml version="1.0" encoding="utf-8"?>
<!-- Generator: Adobe Illustrator 21.0.2, SVG Export Plug-In . SVG Version: 6.00 Build 0)  -->
<svg version="1.1" id="Layer_1" xmlns="http://www.w3.org/2000/svg" xmlns:xlink="http://www.w3.org/1999/xlink" x="0px" y="0px"
	 viewBox="0 0 456.5 357.8" style="enable-background:new 0 0 456.5 357.8;" xml:space="preserve">
<style type="text/css">
	.st0{fill:#E01F26;}
	.st1{fill:#0D0D0D;}
</style>
<g>
	<g>
		<path class="st0" d="M44.2,74.5c25.6,0,40.6,13.4,40.6,41.5v50.8c0,1.9-0.9,3.2-2.8,3.7c-10.9,3.3-25.6,5.4-38.2,5.4
			c-26.7,0-43.6-10-43.6-31.9c0-19.3,15.2-28.9,40.4-28.9c5.7,0,11.1,0.6,15.8,1.1v-1.9c0-9.8-3.5-15.2-15.6-15.2
			c-8.2,0-17.8,2.2-23.2,5.2c-1.7,0.9-3.5,0.7-4.4-1.1L5.7,88.8c-0.9-1.9-0.9-3.2,0.4-4.1C14.7,79.1,28.3,74.5,44.2,74.5z
			 M43.9,152.9c4.3,0,9.3-0.7,12.6-1.5v-16.3c-3.7-0.7-8.7-1.1-12.8-1.1c-10.2,0-14.6,3.3-14.6,9.3C29,149.8,35,152.9,43.9,152.9z"
			/>
		<path class="st0" d="M99.9,173.5c-2.2,0-3.3-1.1-3.3-3.3V86c0-1.7,0.7-3,2.4-3.9c10.2-5,22.1-7.6,34.1-7.6c5.6,0,11.3,0.7,18,1.9
			c2,0.4,3,1.5,3,3.5v17.1c0,2.2-1.3,3.3-3.5,3c-3.7-0.6-7.8-0.7-11.5-0.7c-5.6,0-10.6,0.9-14.1,2.4v68.6c0,2.2-1.1,3.3-3.2,3.3
			H99.9z"/>
		<path class="st0" d="M43.9,292.1c-28,0-43.9-15.6-43.9-40.4v-21c0-24.5,16.1-40.1,43.8-40.1c10.8,0,21,3,30.4,8.7
			c1.7,1.1,2,2.8,0.9,4.6l-9.8,14.8c-1.1,1.9-2.6,2-4.6,1.1c-4.8-2.6-10.2-4.3-15.6-4.3c-10.2,0-16.3,5.6-16.3,15v21
			c0,10.4,6.5,15.4,16.1,15.4c6.3,0,12.2-1.9,17.8-5.4c1.9-1.1,3.5-0.7,4.6,0.9l10,14.8c1.1,1.7,0.9,3.3-0.6,4.4
			C67.3,288.6,56.7,292.1,43.9,292.1z"/>
		<path class="st0" d="M123.3,292.1c-27.3,0-44.1-14.8-44.1-39.3v-22.3c0-24.8,16.9-39.9,44.1-39.9c27.1,0,43.9,15,43.9,39.9v22.3
			C167.3,277.3,150.4,292.1,123.3,292.1z M123.3,267.1c9.8,0,15.2-5,15.2-14.3v-22.3c0-9.3-5.4-14.6-15.2-14.6
			c-9.8,0-15.2,5.4-15.2,14.6v22.3C108.1,262.1,113.5,267.1,123.3,267.1z"/>
	</g>
	<path class="st0" d="M239.1,268.9c10.9-30.7,16.1-63.4,15.4-96c-0.7-29.6-6.2-59.1-16.4-86.9c-9.8-26.6-23.9-51.7-41.5-74
		c-3.2-4.1-6.6-8.1-10.1-12c-4.4,4.4-8.7,8.7-13.1,13.1c-2.6,2.6-5.2,5.2-7.8,7.8c-0.6,0.6-1.1,1.1-1.7,1.7
		c-0.2,0.2,4.9,5.9,5.4,6.6c19.1,23.4,33.6,50.5,42.6,79.3c9.8,31.4,12.9,65.5,9,98.3c-3.7,31.8-14,62.7-30,90.5
		c-7.6,13.2-16.5,25.7-26.6,37.3c-0.8,0.9-0.4,0.9,0.4,1.7c1,1,1.9,1.9,2.9,2.9c2.9,2.9,5.8,5.8,8.8,8.8c3.3,3.3,6.6,6.6,9.9,9.9
		c20.3-22.8,36.7-49.1,48.2-77.4C236.2,276.6,237.7,272.8,239.1,268.9C239.6,267.5,238.9,269.3,239.1,268.9z"/>
	<g>
		<path class="st1" d="M269.3,267.6c4.1,0,6.6,2.2,6.6,6.5v10c0,0.2-0.1,0.4-0.3,0.4c-1.6,0.6-3.9,1.1-6.4,1.1
			c-3.7,0-7.2-1.5-7.2-5.5c0-3.5,2.9-5.3,7.2-5.3c1.4,0,2.9,0.2,4,0.4v-1.1c0-2.7-1.1-4.1-4-4.1c-1.9,0-3.6,0.5-4.7,1.2
			c-0.2,0.1-0.4,0.1-0.5-0.1l-1-1.4c-0.1-0.2-0.1-0.3,0-0.5C264.6,268.3,266.7,267.6,269.3,267.6z M269.2,283.2c1.5,0,3-0.3,4-0.6
			v-5c-1.1-0.2-2.6-0.4-4-0.4c-3,0-4.4,1.1-4.4,3C264.8,282.1,266.6,283.2,269.2,283.2z"/>
		<path class="st1" d="M280.7,285.2c-0.2,0-0.4-0.1-0.4-0.4v-15.6c0-0.2,0.1-0.4,0.3-0.4c1.7-0.8,3.7-1.2,5.7-1.2
			c1.1,0,2.2,0.1,3.4,0.3c0.2,0,0.3,0.2,0.3,0.4v1.6c0,0.3-0.1,0.4-0.4,0.3c-0.9-0.1-2-0.2-3-0.2c-1.4,0-2.7,0.3-3.6,0.7v14.2
			c0,0.2-0.1,0.4-0.4,0.4H280.7z"/>
		<path class="st1" d="M299.3,267.6c2.1,0,4.5,0.5,6.4,1.2c0.2,0.1,0.3,0.2,0.3,0.4v22c0,0.2-0.1,0.4-0.4,0.4h-2
			c-0.3,0-0.4-0.1-0.4-0.4v-6.6c-1.2,0.6-2.6,1-4.1,1c-4.3,0-7.3-2.6-7.3-7.1v-3.7C291.8,269.8,294.9,267.6,299.3,267.6z
			 M299.3,283.2c1.5,0,2.9-0.5,4-1.2v-11.3c-1-0.4-2.5-0.6-3.9-0.6c-3,0-4.7,1.3-4.7,4.8v3.7C294.6,281.8,296.3,283.2,299.3,283.2z"
			/>
		<path class="st1" d="M324.1,268c0.2,0,0.4,0.2,0.4,0.4v15.5c0,0.2-0.1,0.4-0.3,0.5c-1.9,0.8-4,1.3-6.3,1.3c-4.4,0-7.4-2.1-7.4-7.2
			v-10c0-0.2,0.1-0.4,0.4-0.4h2c0.2,0,0.4,0.2,0.4,0.4v10c0,3.5,1.7,4.8,4.6,4.8c1.4,0,2.8-0.3,3.8-0.6v-14.2c0-0.2,0.1-0.4,0.4-0.4
			H324.1z"/>
		<path class="st1" d="M330.4,264.8c-0.9,0-1.7-0.7-1.7-1.6c0-1,0.7-1.6,1.7-1.6c0.9,0,1.6,0.7,1.6,1.6
			C332,264.1,331.3,264.8,330.4,264.8z M329.4,285.2c-0.3,0-0.4-0.1-0.4-0.4v-16.5c0-0.2,0.1-0.4,0.4-0.4h2c0.2,0,0.4,0.2,0.4,0.4
			v16.5c0,0.2-0.1,0.4-0.4,0.4H329.4z"/>
		<path class="st1" d="M342.2,283.1c0.4,0,1,0,1.6-0.1c0.3,0,0.4,0.1,0.4,0.4v1.8c0,0.2-0.1,0.4-0.3,0.4c-0.6,0-1.4,0.1-1.8,0.1
			c-3.3,0-5.8-1.8-5.8-5.9v-15.6c0-0.3,0.1-0.4,0.4-0.4h1.7c0.2,0,0.3,0.1,0.4,0.4l0.2,4h4.3c0.2,0,0.4,0.1,0.4,0.4v1.7
			c0,0.3-0.1,0.4-0.4,0.4H339v9C339,281.8,340.1,283.1,342.2,283.1z"/>
		<path class="st1" d="M360.4,277.5c0,0.3-0.1,0.4-0.4,0.4h-10.9v1.4c0,2.5,1.9,3.8,4.3,3.8c2.3,0,3.9-0.9,5.1-1.9
			c0.2-0.1,0.4-0.1,0.5,0.1l1,1.3c0.2,0.2,0.1,0.4-0.1,0.5c-1.7,1.4-3.8,2.4-6.6,2.4c-3.6,0-7-2.1-7-6.3v-5.1c0-4.6,3.4-6.7,7.1-6.7
			c3.6,0,7,2.1,7,6.7V277.5z M353.4,270.1c-2.5,0-4.3,1.3-4.3,4.2v1.4h8.6v-1.4C357.7,271.4,355.8,270.1,353.4,270.1z"/>
		<path class="st1" d="M370.8,285.6c-4.4,0-7.2-2.7-7.2-6.4v-5.1c0-3.8,2.7-6.5,7.1-6.5c2,0,3.8,0.6,5.4,1.7
			c0.2,0.2,0.2,0.4,0.1,0.6l-0.9,1.4c-0.1,0.2-0.3,0.2-0.5,0.1c-1.2-0.8-2.6-1.2-4.1-1.2c-2.9,0-4.4,1.6-4.4,4v5.1
			c0,2.4,1.6,4,4.4,4c1.5,0,3-0.5,4.5-1.5c0.2-0.2,0.4-0.1,0.5,0.1l1,1.4c0.1,0.2,0.1,0.4-0.1,0.5
			C374.9,284.9,373.1,285.6,370.8,285.6z"/>
		<path class="st1" d="M385.8,283.1c0.4,0,1,0,1.6-0.1c0.3,0,0.4,0.1,0.4,0.4v1.8c0,0.2-0.1,0.4-0.3,0.4c-0.6,0-1.4,0.1-1.8,0.1
			c-3.3,0-5.8-1.8-5.8-5.9v-15.6c0-0.3,0.1-0.4,0.4-0.4h1.7c0.2,0,0.3,0.1,0.4,0.4l0.2,4h4.3c0.2,0,0.4,0.1,0.4,0.4v1.7
			c0,0.3-0.1,0.4-0.4,0.4h-4.3v9C382.6,281.8,383.7,283.1,385.8,283.1z"/>
		<path class="st1" d="M404.1,268c0.2,0,0.4,0.2,0.4,0.4v15.5c0,0.2-0.1,0.4-0.3,0.5c-1.9,0.8-4,1.3-6.3,1.3c-4.4,0-7.4-2.1-7.4-7.2
			v-10c0-0.2,0.1-0.4,0.4-0.4h2c0.2,0,0.4,0.2,0.4,0.4v10c0,3.5,1.7,4.8,4.6,4.8c1.4,0,2.8-0.3,3.8-0.6v-14.2c0-0.2,0.1-0.4,0.4-0.4
			H404.1z"/>
		<path class="st1" d="M409.4,285.2c-0.2,0-0.4-0.1-0.4-0.4v-15.6c0-0.2,0.1-0.4,0.3-0.4c1.7-0.8,3.7-1.2,5.7-1.2
			c1.1,0,2.2,0.1,3.4,0.3c0.2,0,0.3,0.2,0.3,0.4v1.6c0,0.3-0.1,0.4-0.4,0.3c-0.9-0.1-2-0.2-3-0.2c-1.4,0-2.7,0.3-3.6,0.7v14.2
			c0,0.2-0.1,0.4-0.4,0.4H409.4z"/>
		<path class="st1" d="M427.3,267.6c4.1,0,6.7,2.2,6.7,6.5v10c0,0.2-0.1,0.4-0.3,0.4c-1.6,0.6-3.9,1.1-6.4,1.1
			c-3.7,0-7.2-1.5-7.2-5.5c0-3.5,2.9-5.3,7.2-5.3c1.4,0,2.9,0.2,4,0.4v-1.1c0-2.7-1.1-4.1-4-4.1c-1.9,0-3.6,0.5-4.7,1.2
			c-0.2,0.1-0.4,0.1-0.5-0.1l-1-1.4c-0.1-0.2-0.1-0.3,0-0.5C422.6,268.3,424.7,267.6,427.3,267.6z M427.2,283.2c1.5,0,3-0.3,4-0.6
			v-5c-1.1-0.2-2.6-0.4-4-0.4c-3,0-4.4,1.1-4.4,3C422.8,282.1,424.6,283.2,427.2,283.2z"/>
		<path class="st1" d="M263.6,320.5c-0.2,0-0.4-0.1-0.4-0.4v-15.6c0-0.2,0.1-0.4,0.3-0.4c1.7-0.8,3.7-1.2,5.7-1.2
			c1.1,0,2.2,0.1,3.4,0.3c0.2,0,0.3,0.2,0.3,0.4v1.6c0,0.3-0.1,0.4-0.4,0.3c-0.9-0.1-2-0.2-3-0.2c-1.4,0-2.7,0.3-3.6,0.7v14.2
			c0,0.2-0.1,0.4-0.4,0.4H263.6z"/>
		<path class="st1" d="M288.9,312.8c0,0.3-0.1,0.4-0.4,0.4h-10.9v1.4c0,2.5,1.9,3.8,4.3,3.8c2.3,0,3.9-0.9,5.1-1.9
			c0.2-0.1,0.4-0.1,0.5,0.1l1,1.3c0.2,0.2,0.1,0.4-0.1,0.5c-1.7,1.4-3.8,2.4-6.6,2.4c-3.6,0-7.1-2.1-7.1-6.3v-5.1
			c0-4.6,3.4-6.7,7.1-6.7c3.6,0,7,2.1,7,6.7V312.8z M281.9,305.3c-2.5,0-4.3,1.3-4.3,4.2v1.4h8.6v-1.4
			C286.2,306.6,284.3,305.3,281.9,305.3z"/>
		<path class="st1" d="M298.6,318.3c0.4,0,1,0,1.6-0.1c0.3,0,0.4,0.1,0.4,0.4v1.8c0,0.2-0.1,0.4-0.3,0.4c-0.6,0-1.4,0.1-1.8,0.1
			c-3.3,0-5.8-1.8-5.8-5.9v-15.6c0-0.3,0.1-0.4,0.4-0.4h1.7c0.2,0,0.3,0.1,0.4,0.4l0.2,4h4.3c0.2,0,0.4,0.1,0.4,0.4v1.7
			c0,0.3-0.1,0.4-0.4,0.4h-4.3v9C295.4,317,296.5,318.3,298.6,318.3z"/>
		<path class="st1" d="M309.5,302.8c4.1,0,6.6,2.2,6.6,6.5v10c0,0.2-0.1,0.4-0.3,0.4c-1.6,0.6-3.9,1.1-6.4,1.1
			c-3.7,0-7.2-1.5-7.2-5.5c0-3.5,2.9-5.3,7.2-5.3c1.4,0,2.9,0.2,4,0.4v-1.1c0-2.7-1.1-4.1-4-4.1c-1.9,0-3.6,0.5-4.7,1.2
			c-0.2,0.1-0.4,0.1-0.5-0.1l-1-1.4c-0.1-0.2-0.1-0.3,0-0.5C304.8,303.5,306.9,302.8,309.5,302.8z M309.4,318.4c1.5,0,3-0.3,4-0.6
			v-5c-1.1-0.2-2.6-0.4-4-0.4c-3,0-4.4,1.1-4.4,3C305,317.4,306.8,318.4,309.4,318.4z"/>
		<path class="st1" d="M321.9,300c-0.9,0-1.7-0.7-1.7-1.6c0-1,0.7-1.6,1.7-1.6c0.9,0,1.6,0.7,1.6,1.6
			C323.6,299.3,322.9,300,321.9,300z M320.9,320.5c-0.3,0-0.4-0.1-0.4-0.4v-16.5c0-0.2,0.1-0.4,0.4-0.4h2c0.2,0,0.4,0.2,0.4,0.4
			v16.5c0,0.2-0.1,0.4-0.4,0.4H320.9z"/>
		<path class="st1" d="M332.8,320.8c-3.2,0-5-2.1-5-6.1v-17.7c0-0.2,0.1-0.4,0.4-0.4h2c0.2,0,0.4,0.1,0.4,0.4v17.8
			c0,2.6,0.9,3.6,2.6,3.6c0.4,0,1,0,1.5-0.1c0.3,0,0.4,0.1,0.4,0.4v1.7c0,0.2-0.1,0.4-0.3,0.4C334.1,320.8,333.4,320.8,332.8,320.8z
			"/>
		<path class="st1" d="M269.8,356.1c-4.4,0-7.2-2.7-7.2-6.4v-5.1c0-3.8,2.7-6.5,7.1-6.5c2,0,3.8,0.6,5.4,1.7
			c0.2,0.2,0.2,0.4,0.1,0.6l-0.9,1.4c-0.1,0.2-0.3,0.2-0.5,0.1c-1.2-0.8-2.6-1.2-4.1-1.2c-2.9,0-4.4,1.6-4.4,4v5.1
			c0,2.4,1.6,4,4.4,4c1.5,0,3-0.5,4.5-1.5c0.2-0.2,0.4-0.1,0.5,0.1l1,1.4c0.1,0.2,0.1,0.4-0.1,0.5
			C274,355.4,272.1,356.1,269.8,356.1z"/>
		<path class="st1" d="M285.5,356.1c-4.5,0-7.4-2.6-7.4-6.5v-4.8c0-3.9,2.8-6.7,7.4-6.7c4.5,0,7.3,2.7,7.3,6.7v4.8
			C292.8,353.4,290,356.1,285.5,356.1z M285.5,353.6c3,0,4.6-1.6,4.6-4.1v-4.8c0-2.5-1.6-4.2-4.6-4.2c-3,0-4.6,1.6-4.6,4.2v4.8
			C280.9,352,282.5,353.6,285.5,353.6z"/>
		<path class="st1" d="M312.7,338.1c4.1,0,6.9,2.4,6.9,6.8v10.5c0,0.2-0.1,0.4-0.4,0.4h-2c-0.3,0-0.4-0.1-0.4-0.4v-10.5
			c0-2.7-1.4-4.3-4.2-4.3c-1.4,0-2.7,0.4-3.7,1.1c0.4,0.9,0.6,2,0.6,3.2v10.5c0,0.2-0.1,0.4-0.4,0.4h-2c-0.2,0-0.4-0.1-0.4-0.4
			v-10.5c0-2.8-1.3-4.3-4-4.3c-1.4,0-2.4,0.3-3.4,0.6v14.2c0,0.2-0.1,0.4-0.4,0.4h-2c-0.2,0-0.4-0.1-0.4-0.4v-15.5
			c0-0.2,0.1-0.4,0.3-0.5c1.8-0.8,3.7-1.3,5.7-1.3c2,0,3.6,0.6,4.8,1.6C309.2,338.6,310.7,338.1,312.7,338.1z"/>
		<path class="st1" d="M337.6,338.4c0.2,0,0.4,0.2,0.4,0.4v15.5c0,0.2-0.1,0.4-0.3,0.5c-1.9,0.8-4,1.3-6.3,1.3
			c-4.4,0-7.4-2.1-7.4-7.2v-10c0-0.2,0.1-0.4,0.4-0.4h2c0.2,0,0.4,0.2,0.4,0.4v10c0,3.5,1.7,4.8,4.6,4.8c1.4,0,2.8-0.3,3.8-0.6
			v-14.2c0-0.2,0.1-0.4,0.4-0.4H337.6z"/>
		<path class="st1" d="M342.8,355.7c-0.2,0-0.4-0.1-0.4-0.4v-15.5c0-0.2,0.1-0.4,0.3-0.5c1.9-0.8,4.1-1.3,6.4-1.3
			c4.5,0,7.5,2.1,7.5,7.2v10.1c0,0.2-0.1,0.4-0.4,0.4h-2c-0.2,0-0.4-0.1-0.4-0.4v-10c0-3.5-1.8-4.8-4.8-4.8c-1.4,0-2.9,0.3-3.9,0.6
			v14.2c0,0.2-0.1,0.4-0.4,0.4H342.8z"/>
		<path class="st1" d="M362.5,335.2c-0.9,0-1.7-0.7-1.7-1.6c0-1,0.7-1.6,1.7-1.6c0.9,0,1.6,0.7,1.6,1.6
			C364.2,334.5,363.5,335.2,362.5,335.2z M361.5,355.7c-0.3,0-0.4-0.1-0.4-0.4v-16.5c0-0.2,0.1-0.4,0.4-0.4h2c0.2,0,0.4,0.2,0.4,0.4
			v16.5c0,0.2-0.1,0.4-0.4,0.4H361.5z"/>
		<path class="st1" d="M375,356.1c-4.4,0-7.2-2.7-7.2-6.4v-5.1c0-3.8,2.7-6.5,7.1-6.5c2,0,3.8,0.6,5.4,1.7c0.2,0.2,0.2,0.4,0.1,0.6
			l-0.9,1.4c-0.1,0.2-0.3,0.2-0.5,0.1c-1.2-0.8-2.6-1.2-4.1-1.2c-2.9,0-4.4,1.6-4.4,4v5.1c0,2.4,1.6,4,4.4,4c1.5,0,3-0.5,4.5-1.5
			c0.2-0.2,0.4-0.1,0.5,0.1l1,1.4c0.1,0.2,0.1,0.4-0.1,0.5C379.2,355.4,377.4,356.1,375,356.1z"/>
		<path class="st1" d="M390.2,338.1c4.1,0,6.7,2.2,6.7,6.5v10c0,0.2-0.1,0.4-0.3,0.4c-1.6,0.6-3.9,1.1-6.4,1.1
			c-3.7,0-7.2-1.5-7.2-5.5c0-3.5,2.9-5.3,7.2-5.3c1.4,0,2.9,0.2,4,0.4v-1.1c0-2.7-1.1-4.1-4-4.1c-1.9,0-3.6,0.5-4.7,1.2
			c-0.2,0.1-0.4,0.1-0.5-0.1l-1-1.4c-0.1-0.2-0.1-0.3,0-0.5C385.5,338.7,387.6,338.1,390.2,338.1z M390.1,353.6c1.5,0,3-0.3,4-0.6
			v-5c-1.1-0.2-2.6-0.4-4-0.4c-3,0-4.4,1.1-4.4,3C385.7,352.6,387.5,353.6,390.1,353.6z"/>
		<path class="st1" d="M407.8,356.1c-4.4,0-7.2-2.7-7.2-6.4v-5.1c0-3.8,2.7-6.5,7.1-6.5c2,0,3.8,0.6,5.4,1.7
			c0.2,0.2,0.2,0.4,0.1,0.6l-0.9,1.4c-0.1,0.2-0.3,0.2-0.5,0.1c-1.2-0.8-2.6-1.2-4.1-1.2c-2.9,0-4.4,1.6-4.4,4v5.1
			c0,2.4,1.6,4,4.4,4c1.5,0,3-0.5,4.5-1.5c0.2-0.2,0.4-0.1,0.5,0.1l1,1.4c0.1,0.2,0.1,0.4-0.1,0.5
			C412,355.4,410.1,356.1,407.8,356.1z"/>
		<path class="st1" d="M418.3,335.2c-0.9,0-1.7-0.7-1.7-1.6c0-1,0.7-1.6,1.7-1.6c0.9,0,1.6,0.7,1.6,1.6
			C420,334.5,419.3,335.2,418.3,335.2z M417.3,355.7c-0.3,0-0.4-0.1-0.4-0.4v-16.5c0-0.2,0.1-0.4,0.4-0.4h2c0.2,0,0.4,0.2,0.4,0.4
			v16.5c0,0.2-0.1,0.4-0.4,0.4H417.3z"/>
		<path class="st1" d="M431,356.1c-4.5,0-7.4-2.6-7.4-6.5v-4.8c0-3.9,2.8-6.7,7.4-6.7c4.5,0,7.4,2.7,7.4,6.7v4.8
			C438.4,353.4,435.5,356.1,431,356.1z M431,353.6c3,0,4.6-1.6,4.6-4.1v-4.8c0-2.5-1.6-4.2-4.6-4.2c-3,0-4.6,1.6-4.6,4.2v4.8
			C426.4,352,428,353.6,431,353.6z M429.3,335.7c-0.3,0-0.5-0.2-0.3-0.5l2.7-4.4c0.1-0.1,0.3-0.2,0.5-0.2h2.1c0.3,0,0.4,0.2,0.2,0.5
			l-3.2,4.4c-0.1,0.1-0.3,0.2-0.5,0.2H429.3z"/>
		<path class="st1" d="M442.7,355.7c-0.2,0-0.4-0.1-0.4-0.4v-15.5c0-0.2,0.1-0.4,0.3-0.5c1.9-0.8,4.1-1.3,6.4-1.3
			c4.5,0,7.5,2.1,7.5,7.2v10.1c0,0.2-0.1,0.4-0.4,0.4h-2c-0.2,0-0.4-0.1-0.4-0.4v-10c0-3.5-1.8-4.8-4.8-4.8c-1.4,0-2.9,0.3-3.9,0.6
			v14.2c0,0.2-0.1,0.4-0.4,0.4H442.7z"/>
	</g>
</g>
</svg>
